<?xml version="1.0" standalone="no"?><!DOCTYPE svg PUBLIC "-//W3C//DTD SVG 1.1//EN" "http://www.w3.org/Graphics/SVG/1.1/DTD/svg11.dtd"><svg width="100%" height="100%" viewBox="0 0 986 976" version="1.1" xmlns="http://www.w3.org/2000/svg" xmlns:xlink="http://www.w3.org/1999/xlink" xml:space="preserve" style="fill-rule:evenodd;clip-rule:evenodd;stroke-linejoin:round;stroke-miterlimit:1.41421;"><g><path d="M293.238,4.984c133.826,-0.055 267.653,-0.027 401.479,-0.014c2.072,-0.068 4.268,0.097 5.695,1.839c14.105,12.898 27.319,26.716 40.849,40.204c35.758,36.925 72.313,73.095 108.057,110.047c44.033,44.431 87.736,89.149 131.618,133.717c0,129.079 -0.014,258.158 0.096,387.237c-0.343,3.691 1.18,8.315 -2.237,10.95c-21.776,21.707 -44.033,42.921 -65.836,64.587c-18.826,18.661 -37.721,37.24 -56.753,55.682c-24.945,24.479 -49.617,49.219 -74.782,73.479c-24.26,23.738 -48.204,47.792 -72.642,71.352c-5.612,5.626 -11.526,10.964 -16.946,16.782c-132.592,0.343 -265.183,-0.014 -397.775,0.123c-2.854,-0.151 -6.188,0.494 -8.219,-1.989c-37.186,-36.966 -73.438,-74.838 -110.459,-111.982c-32.63,-33.247 -65.219,-66.536 -98.013,-99.605c-23.999,-24.671 -48.177,-49.164 -72.381,-73.63c0,-131.947 -0.179,-263.893 0.027,-395.826c96.229,-94.158 191.924,-188.864 288.222,-282.953" style="fill:#97874f;fill-rule:nonzero;"/><path d="M268.374,54.025c11.54,-10.456 22.023,-21.996 33.536,-32.479c30.805,0.357 61.623,0.522 92.428,0.727c42.043,-1.015 84.1,0.343 126.156,-0.013c53.501,-0.933 107.015,0.452 160.515,-0.055c2.292,0.274 5.132,-0.577 7.026,1.152c36.28,35.526 72.477,71.147 108.291,107.166c19.8,19.087 39.12,38.654 58.687,57.974c33.7,32.547 66.59,65.932 99.934,98.863c2.086,2.182 5.118,4.282 4.514,7.781c-0.425,119.858 0.398,239.729 -0.727,359.587c-0.288,9.578 0.316,19.197 -0.425,28.747c-6.724,8.644 -15.231,15.944 -23.094,23.628c-25.687,26.017 -51.977,51.429 -77.87,77.239c-18.085,18.017 -35.895,36.335 -54.666,53.665c-25.893,26.291 -52.595,51.758 -78.968,77.555c-12.267,12.157 -24.575,24.273 -36.939,36.334c-28.472,0.275 -56.944,-0.631 -85.416,0.041c-5.75,0.151 -11.485,-0.205 -17.221,-0.411c-0.11,-0.782 -0.316,-2.36 -0.412,-3.142c-0.274,1.029 -0.548,2.072 -0.795,3.142c-26.291,0.11 -52.581,-0.522 -78.886,-0.329c-21.46,0.644 -42.921,-1.016 -64.381,-0.055c-29.351,-0.151 -58.674,0.027 -88.024,0.109c-19.046,-0.658 -38.105,-0.151 -57.164,-0.466c-21.543,-20.596 -42.578,-41.727 -63.765,-62.68c-14.709,-15.025 -30.214,-29.241 -44.938,-44.252c-11.896,-11.856 -23.573,-23.903 -35.429,-35.773c-18.318,-16.891 -35.25,-35.209 -52.828,-52.855c-25.22,-25.056 -50.221,-50.331 -75.084,-75.743c-0.096,-76.827 0.576,-153.668 0.919,-230.495c0.947,-48.972 0.467,-97.958 1.208,-146.917c0.343,-3.225 -0.892,-7.218 1.838,-9.66c33.193,-33.604 67.222,-66.385 100.621,-99.797c25.851,-25.44 51.62,-50.962 77.705,-76.168c21.323,-20.693 42.18,-41.879 63.654,-62.42" style="fill:#0f1715;fill-rule:nonzero;"/><path d="M414.509,53.764c7.712,-8.617 15.272,-17.412 23.642,-25.412c0.33,6.092 -0.233,12.212 0.343,18.277c3.211,1.688 7.108,0.81 10.58,1.674c2.415,1.359 1.358,4.405 0.946,6.559c-3.732,1.482 -7.903,1.07 -11.828,1.496c-0.727,11.938 -0.439,23.889 -0.823,35.841c0.069,4.926 -0.617,9.92 0.261,14.805c3.032,3.966 8.068,3.54 12.377,2.47c-1.345,4.336 -5.708,6.23 -8.974,8.878c-2.196,1.468 -4.199,3.499 -6.875,4.061c-4.802,-3.197 -9.715,-6.229 -15.039,-8.507c-3.197,-1.111 -0.727,-4.295 0.193,-6.188c2.25,-3.431 1.756,-7.616 1.852,-11.485c-0.041,-13.2 0.549,-26.401 0.357,-39.601c-2.347,-0.947 -4.679,-1.907 -7.012,-2.868" style="fill:#97874f;fill-rule:nonzero;"/><path d="M609.685,36.475c5.502,-3.115 11.402,-5.639 17.728,-6.449c-1.839,4.473 -6.751,7.286 -7.108,12.404c-0.823,8.274 -0.48,16.631 -0.425,24.946c8.041,-2.154 13.31,-9.852 21.337,-11.718c6.696,1.551 11.389,8.988 11.101,15.807c-0.055,14.133 -0.481,28.267 -0.357,42.4c5.694,5.804 10.867,12.857 10.607,21.419c-8.316,-6.943 -16.919,-13.625 -26.565,-18.647c-1.18,-15.039 0.837,-30.147 -0.302,-45.172c-0.151,-3.046 -3.787,-6.188 -6.71,-4.391c-4.268,2.36 -10.223,5.544 -9.427,11.307c0.083,10.03 -0.192,20.061 -0.096,30.091c1.331,1.784 2.758,3.554 3.746,5.571c-3.581,3.925 -8.288,7.876 -13.584,8.672c-4.309,-2.319 -8.316,-5.214 -11.828,-8.603c1.509,-2.772 4.816,-4.83 4.693,-8.274c0.521,-17.838 0.329,-35.676 0.576,-53.514c-0.014,-3.609 0.686,-7.273 -0.069,-10.827c-1.427,-3.375 -4.706,-5.763 -5.488,-9.426c4.459,0.027 8.315,2.469 12.171,4.404" style="fill:#97874f;fill-rule:nonzero;"/><path d="M350.827,53.778c4.103,3.06 8.494,5.887 11.869,9.797c-1.372,2.553 -4.144,4.583 -3.897,7.753c-0.123,11.06 -0.274,22.133 0,33.179c-0.219,3.746 5.187,6.668 8.151,4.199c3.293,-2.361 7.849,-5.009 7.657,-9.647c0.109,-9.221 -0.11,-18.455 -0.124,-27.69c0.11,-3.307 -2.785,-5.53 -4.377,-8.109c3.76,-3.143 7.615,-6.161 11.595,-9.029c4.048,2.964 8.095,5.941 12.047,9.042c-2.154,2.827 -5.241,5.585 -4.624,9.523c0.206,11.238 -0.123,22.504 0.576,33.714c0.385,4.405 6.614,1.77 7.931,4.981c-3.361,4.775 -8.672,8.617 -14.38,9.948c-6.051,-1.029 -8.205,-7.684 -10.414,-12.596c-6.216,3.76 -10.786,9.797 -17.056,13.337c-5.365,-2.95 -9.99,-7.094 -15.547,-9.742c1.674,-2.909 3.911,-5.818 3.581,-9.372c-0.26,-11.43 0.604,-22.874 -0.082,-34.276c-2.14,-0.892 -4.377,-1.441 -6.518,-2.278c3.225,-5.324 9.29,-8.316 13.612,-12.734" style="fill:#97874f;fill-rule:nonzero;"/><path d="M509.545,57.744c2.607,-0.179 3.375,-2.909 4.72,-4.652c1.221,1.125 2.442,2.25 3.581,3.485c-4.103,7.547 -10.977,13.173 -15.382,20.555c3.801,4.254 10.36,4.83 13.804,9.386c0.398,8.397 -0.411,16.809 -0.494,25.22c-5.612,2.058 -11.348,4.02 -16.301,7.451c-1.894,0.988 -3.952,3.087 -6.216,1.825c-5.351,-2.113 -10.84,-4.515 -16.754,-3.883c-5.736,-0.014 -10.319,4.24 -15.917,4.747c0.178,-3.636 3.554,-5.955 5.502,-8.727c4.35,-5.708 10.305,-10.359 13.324,-16.96c-3.334,-3.773 -9.303,-4.13 -12.253,-8.219c-0.604,-7.451 -0.933,-15.217 0.645,-22.558c2.936,-1.907 6.408,-2.758 9.509,-4.35c3.759,-1.838 6.751,-4.857 10.332,-6.998c7.259,1.125 14.312,5.379 21.9,3.678" style="fill:#97874f;fill-rule:nonzero;"/><path d="M541.447,66.484c7.945,-4.034 15.835,-8.205 23.203,-13.255c5.777,2.799 11.897,5.283 16.631,9.77c-2.333,3.046 -4.707,6.065 -7.176,9.015c-3.801,-1.839 -7.684,-3.54 -11.815,-4.446c-0.576,12.652 -0.562,25.358 -0.192,38.009c3.444,3.019 8.165,3.897 12.405,5.324c2.071,-1.153 4.102,-2.827 6.668,-2.58c-0.233,2.333 -2.415,3.472 -4.006,4.803c-3.815,2.717 -7.602,5.475 -11.238,8.425c-7.218,-3.293 -14.943,-5.104 -22.531,-7.272c-1.812,-3.527 3.416,-6.203 3.156,-9.894c0.137,-11.54 -0.124,-23.121 -0.357,-34.66c-1.605,-1.071 -3.183,-2.155 -4.748,-3.239" style="fill:#97874f;fill-rule:nonzero;"/><path d="M483.57,65.99c5.873,1.592 11.773,3.129 17.865,3.609c-3.266,5.201 -7.547,9.646 -11.265,14.504c-2.498,-0.604 -5.544,-0.604 -7.053,-3.046c-0.892,-4.995 -0.151,-10.086 0.453,-15.067" style="fill:#0f1715;fill-rule:nonzero;"/><path d="M276.305,102.696c8.864,-5.448 18.497,-9.482 27.636,-14.422c6.929,6.779 13.419,14.01 19.635,21.474c-8.795,7.026 -17.509,14.161 -26.263,21.255c0.027,3.568 -0.384,7.231 0.494,10.744c3.499,3.033 8.013,5.201 12.651,5.667c3.65,-1.427 6.916,-3.842 10.827,-4.583c0.082,0.631 0.247,1.921 0.329,2.566c-6.779,4.199 -13.365,9.221 -20.898,11.91c-7.849,-1.893 -15.272,-5.433 -23.135,-7.464c2.511,-3.678 5.022,-7.698 4.583,-12.363c-0.411,-9.688 -0.494,-19.403 -0.878,-29.09c-0.014,-2.882 -3.334,-3.911 -4.981,-5.694" style="fill:#97874f;fill-rule:nonzero;"/><path d="M492.338,89.276c2.772,1.002 5.777,1.811 7.999,3.897c0.879,5.118 0.083,10.346 -0.576,15.464c-6.819,-1.798 -13.804,-2.923 -20.87,-2.497c4.157,-5.873 8.974,-11.238 13.447,-16.864" style="fill:#0f1715;fill-rule:nonzero;"/><path d="M674.643,106.345c9.262,-5.502 19.32,-9.605 29.103,-14.092c6.092,7.259 13.008,13.996 18.291,21.859c-8.357,7.602 -17.879,13.872 -26.606,21.062c0.055,3.527 -0.275,7.108 0.398,10.594c3.238,3.252 7.903,5.214 12.418,5.749c3.924,-1.331 7.643,-3.595 11.951,-3.417c-1.276,1.825 -2.868,3.403 -4.844,4.46c-5.831,3.348 -11.553,6.874 -17.522,9.934c-7.355,-3.691 -15.272,-5.928 -23.038,-8.48c2.222,-3.513 5.296,-6.874 5.241,-11.306c0.329,-9.976 0.329,-19.965 0.028,-29.941c0.576,-3.554 -3.294,-4.583 -5.42,-6.422" style="fill:#97874f;fill-rule:nonzero;"/><path d="M297.313,100.239c4.597,4.419 8.85,9.194 13.104,13.955c-3.718,3.842 -8.205,6.806 -12.898,9.345c-0.59,-7.753 -0.645,-15.533 -0.206,-23.3" style="fill:#0f1715;fill-rule:nonzero;"/><path d="M695.938,104.342c4.515,4.336 10.292,8.59 12.226,14.682c-3.265,3.774 -7.766,6.093 -12.006,8.576c-1.139,-7.698 -1.043,-15.533 -0.22,-23.258" style="fill:#0f1715;fill-rule:nonzero;"/><path d="M208.15,124.334c5.887,-7.107 13.667,-13.062 22.847,-14.97c9.756,-1.125 19.553,5.132 23.656,13.914c3.416,7.396 4.734,15.656 4.459,23.779c0.137,17.331 0.727,34.661 0.453,51.991c-7.67,3.829 -14.229,9.482 -21.68,13.598c-6.367,0.11 -12.459,-2.099 -18.758,-2.73c-15.464,-1.784 -31.312,0.165 -45.884,5.612c-0.22,-0.672 -0.645,-2.017 -0.865,-2.689c5.324,-4.638 12.418,-6.408 18.126,-10.47c6.285,-4.322 13.146,-8.905 16.59,-15.944c2.264,-10.1 0.109,-20.61 2.181,-30.778c6.024,-1.907 10.223,-6.614 14.518,-10.963c-0.055,17.055 -0.865,34.098 -1.167,51.14c7.575,1.221 15.108,2.772 22.545,4.693c0.412,-18.771 -0.316,-37.543 -0.014,-56.327c0.096,-6.861 -0.919,-14.957 -7.272,-18.964c-3.664,-3.622 -9.413,-2.415 -12.885,0.81c-6.435,5.955 -12.02,12.761 -17.55,19.539c-2.538,2.978 -5.447,5.969 -9.317,7.108c-5.365,1.427 -11.347,-0.631 -15.08,-4.638c-0.301,-3.883 5.324,-2.181 7.424,-4.391c6.12,-6.229 11.457,-13.172 17.673,-19.32" style="fill:#97874f;fill-rule:nonzero;"/><path d="M337.16,139.456c2.47,-1.976 4.57,-4.803 7.685,-5.736c9.111,-1.043 18.318,-0.384 27.47,-0.357c47.573,-0.37 95.118,-0.096 142.705,-0.274c13.749,-0.33 27.525,-0.165 41.274,0.178c25.55,-0.686 51.127,-0.137 76.69,-0.549c3.581,0.426 8.096,-1.125 10.758,2.045c15.766,15.835 32.3,30.887 48.025,46.749c35.415,35.498 71.476,70.337 106.727,105.986c18.386,17.714 36.375,35.854 54.159,54.159c0.164,24.808 -0.385,49.644 0.452,74.453c2.704,-20.322 6.724,-40.437 10.113,-60.649c0.823,-9.29 15.204,-11.526 13.722,-21.516c-3.774,-4.94 -9.482,-8.068 -12.912,-13.337c-2.937,-4.377 -7.122,-9.372 -5.434,-15.012c0.851,-4.404 4.267,-7.574 5.996,-11.581c-0.494,-0.603 -1.454,-1.811 -1.948,-2.401c-2.868,0.92 -5.818,2.388 -8.905,1.811c-5.613,-0.576 -9.866,-4.624 -14.628,-7.203c-1.879,-5.064 -4.102,-10.223 -3.855,-15.739c0.054,-9.619 6.257,-19.43 15.67,-22.298c5.529,-1.756 11.8,0.069 16.013,3.925c2.511,2.14 4.843,5.475 8.672,4.459c1.962,-3.032 3.073,-7.341 7.162,-8.15c7.506,-0.824 14.888,4.253 18.003,10.977c2.772,4.967 0.604,11.499 4.46,15.999c1.633,2.58 4.953,2.333 7.588,2.868c14.16,1.002 22.558,20.596 13.186,31.422c-2.099,3.582 -7.519,7.808 -4.061,12.13c1.948,1.441 4.473,-0.302 6.6,-0.507c5.735,7.835 5.406,19.292 -1.002,26.647c-4.94,6.545 -12.555,9.907 -19.526,13.763c-2.676,1.729 -5.612,3.554 -7.094,6.476c-2.195,4.83 0.961,9.811 0.604,14.737c-1.427,4.83 -6.175,7.369 -9.935,10.223c-18.579,12.912 -30.05,33.412 -38.036,54.09c-2.003,5.887 -0.947,12.226 -0.878,18.319c2.374,-2.47 6.175,-4.446 6.367,-8.247c0.713,-8.425 1.537,-17.248 6.12,-24.589c3.993,-6.449 9.907,-11.732 16.699,-15.094c0.219,3.911 -3.499,5.598 -5.887,7.917c-7.108,5.805 -11.375,14.532 -13.022,23.437c-0.658,4.624 -1.166,10.648 3.349,13.584c3.91,1.386 8.178,1.084 12.239,1.839c0.096,-0.618 0.261,-1.852 0.357,-2.456c-4.473,1.509 -4.693,-2.264 -5.228,-5.352c2.607,-0.439 5.2,-0.85 7.821,-1.248c-0.013,1.358 -0.041,4.075 -0.055,5.433l-2.36,0.165c0.892,0.782 1.798,1.564 2.731,2.346c7.615,-2.291 15.286,-5.186 21.227,-10.689c1.921,-1.084 3.636,-4.377 6.175,-2.497c-8.617,11.197 -23.478,17.221 -37.515,16.301c-6.916,-0.356 -13.598,1.88 -19.361,5.571c0.014,4.501 -0.014,9.015 -0.041,13.53c4.185,-0.398 9.523,1.317 12.637,-2.402c5.173,-5.392 10.717,-10.716 17.605,-13.886c7.369,-3.128 15.588,-3.609 23.505,-3.252c-0.068,0.714 -0.206,2.127 -0.274,2.827c-5.448,0.425 -11.046,0.014 -16.329,1.715c-7.945,2.566 -15.464,7.067 -20.802,13.571c-2.483,2.854 -2.909,7.697 0.083,10.373c7.629,7.382 18.112,12.007 28.733,12.473c0,-0.357 0.013,-1.07 0.013,-1.441c-2.291,-0.439 -4.596,-0.603 -6.861,-0.905c1.331,-1.455 2.676,-2.882 4.048,-4.295c2.511,0.466 5.064,0.947 7.616,1.399c-1.112,1.482 -2.745,2.704 -3.088,4.611c0.933,0.37 2.786,1.125 3.719,1.509c0.357,-1.866 0.741,-3.732 1.139,-5.571l2.909,2.511l-3.005,0.151c1.55,1.523 3.128,3.033 4.679,4.611c-13.763,2.634 -28.555,-1.125 -39.107,-10.429c-4.761,-4.445 -10.771,-7.217 -17.152,-8.37c-0.123,5.736 -0.109,11.485 0.096,17.234c5.695,2.402 11.774,4.24 18.031,3.403c10.126,-1.084 20.555,1.359 29.007,7.095c3.348,2.469 8.082,4.528 8.521,9.248c-5.53,-2.909 -10.072,-7.437 -15.944,-9.729c-7.712,-3.115 -16.302,-5.159 -24.589,-3.348c-3.911,0.576 -6.216,4.666 -5.914,8.384c0.219,11.691 6.133,23.299 15.697,30.105c2.264,1.715 4.844,3.376 5.077,6.559c-11.06,-4.391 -19.855,-14.517 -22.435,-26.167c-1.097,-4.363 -1.139,-8.878 -2.072,-13.241c-0.521,-2.896 -3.471,-4.226 -5.42,-6.051c-0.151,5.365 -1.303,11.004 0.659,16.177c7.176,17.221 16.521,34.153 31.011,46.297c4.665,4.075 10.346,6.819 14.929,10.977c4.089,4.213 0.384,10.031 0.631,14.998c0.069,5.296 5.228,8.301 9.303,10.62c8.178,4.021 17.042,8.604 21.241,17.18c3.691,6.97 2.868,15.793 -1.564,22.229c-1.852,-0.343 -3.65,-1.016 -5.406,-1.565c-0.947,1.139 -1.839,2.306 -2.676,3.541c0.988,6.339 7.231,10.154 8.974,16.232c2.511,10.305 -3.678,22.764 -14.435,25.111c-3.609,0.974 -8.645,0.302 -10.319,4.473c-2.662,5.653 -1.043,12.72 -5.091,17.879c-3.855,5.132 -10.167,9.948 -16.946,8.37c-4.02,-0.878 -4.802,-5.461 -6.394,-8.589c-4.967,-0.275 -7.355,4.432 -10.95,6.874c-3.691,2.497 -8.315,4.542 -12.788,3.005c-10.538,-3.17 -17.783,-14.421 -16.919,-25.316c0.11,-11.924 12.322,-23.588 24.438,-20.143c1.825,0.617 4.089,0.617 4.761,-1.62c-3.114,-4.926 -7.519,-10.058 -6.49,-16.315c2.923,-8.891 9.811,-15.711 16.617,-21.831c2.264,-1.619 2.868,-5.008 0.988,-7.162c-3.883,-5.969 -12.144,-8.892 -13.269,-16.521c-3.677,-19.69 -7.135,-39.436 -10.895,-59.113c0.124,23.794 -0.206,47.587 -0.37,71.38c0.604,4.679 -4.007,7.067 -6.669,10.085c-12.212,12.501 -24.658,24.768 -36.829,37.309c-16.809,15.643 -32.835,32.095 -49.095,48.3c-10.991,11.417 -22.957,21.845 -33.906,33.33c-16.013,15.56 -31.615,31.546 -47.601,47.12c-12.788,11.677 -24.712,24.232 -37.295,36.115c-98.836,-0.727 -197.686,-1.688 -296.523,-2.031c-4.665,0.151 -6.106,-5.036 -9.097,-7.615c-31.697,-31.464 -63.627,-62.694 -95.05,-94.432c-16.768,-17.577 -34.674,-33.988 -51.579,-51.429c-13.722,-13.707 -27.141,-27.69 -40.726,-41.535c-5.173,-5.296 -11.073,-9.934 -15.642,-15.78c-1.414,-3.691 -0.961,-7.835 -1.139,-11.718c0.274,-19.663 0.178,-39.326 0.603,-58.975c-2.991,15.478 -5.639,31.024 -8.507,46.516c-0.906,4.501 -1.235,9.152 -2.84,13.475c-3.787,5.502 -10.758,8.631 -12.844,15.34c0.206,2.992 2.868,4.83 4.775,6.82c5.873,5.351 11.334,11.65 13.859,19.306c1.153,6.106 -3.334,11.142 -6.271,16.013c0.618,0.988 1.482,1.77 2.251,2.676c10.689,-5.406 23.683,3.513 26.62,14.147c3.842,12.596 -4.556,26.963 -17.166,30.27c-3.513,1.056 -7.122,-0.453 -10.236,-1.976c-4.57,-2.127 -6.971,-7.986 -12.638,-7.616c-1.413,3.143 -2.003,7.63 -5.941,8.576c-7.767,1.702 -15.108,-4.157 -18.538,-10.716c-2.95,-5.256 -0.755,-12.267 -4.995,-16.905c-1.989,-2.305 -5.434,-1.757 -8.109,-2.429c-11.074,-1.207 -18.058,-13.447 -16.452,-23.862c1.372,-6.408 7.354,-10.483 9.289,-16.63c-0.343,-1.647 -1.098,-3.142 -1.715,-4.666c-2.182,0.577 -4.35,1.153 -6.518,1.757c-2.278,-4.611 -4.693,-9.633 -3.732,-14.929c1.194,-8.81 7.711,-15.862 15.148,-20.185c5.654,-3.471 12.597,-5.337 16.741,-10.84c3.609,-5.681 -2.525,-12.5 0.96,-18.14c3.513,-4.363 8.837,-6.682 13.091,-10.209c15.423,-12.061 24.781,-29.926 32.355,-47.586c2.662,-5.612 1.647,-11.979 1.757,-17.962c-1.675,1.771 -4.199,3.184 -4.529,5.832c-1.138,7.835 -1.262,16.109 -5.145,23.258c-4.034,7.3 -10.086,13.557 -17.468,17.495c-0.329,-2.909 1.633,-4.693 3.705,-6.216c9.427,-7.121 14.957,-18.881 15.355,-30.599c0.26,-3.883 -1.812,-8.603 -6.107,-9.111c-12.623,-1.825 -25.563,3.074 -34.99,11.389c-1.605,0.823 -3.114,3.664 -5.118,1.894c8.384,-11.485 23.492,-17.111 37.474,-16.329c5.955,0.466 11.649,-1.496 16.932,-4.048c0.055,-5.626 0.096,-11.252 0.041,-16.877c-7.245,1.701 -13.46,5.859 -18.702,11.032c-9.578,8.054 -22.792,11.155 -35.045,9.509c0,-0.508 0.014,-1.551 0.014,-2.072c4.281,-0.906 8.686,-0.549 13.008,-0.412c-1.482,-0.919 -3.005,-1.77 -4.556,-2.552c-0.713,-0.439 -2.127,-1.331 -2.84,-1.77c0.645,-0.755 1.948,-2.264 2.593,-3.019c-1.207,-0.151 -3.622,-0.48 -4.816,-0.645c0.329,-1.811 0.727,-3.609 1.166,-5.392c2.031,1.289 4.062,2.607 6.079,3.924c-0.878,0.864 -2.635,2.58 -3.499,3.444c1.564,-0.274 4.679,-0.823 6.243,-1.098c1.208,1.551 2.402,3.088 3.582,4.666l-4.611,-0.481c0.947,0.741 1.907,1.496 2.882,2.223c8.864,-2.977 18.387,-6.545 24.04,-14.448c2.401,-3.664 0,-8.137 -2.717,-10.841c-9.193,-9.907 -23.272,-13.584 -36.444,-12.225c0.48,-1.99 1.674,-3.005 3.581,-3.047c9.879,-0.878 20.445,1.057 28.362,7.355c4.336,3.019 7.534,7.369 11.801,10.456c3.183,1.002 6.682,0.316 9.989,0.508c0.055,-4.158 0.11,-8.302 0.165,-12.446c-5.9,-4.034 -12.761,-6.888 -20.02,-6.586c-10.799,0.192 -21.543,-3.472 -29.789,-10.497c-2.251,-2.223 -6.463,-4.254 -5.201,-8.082c8.041,7.162 17.152,13.804 28.102,15.382c5.379,0.768 13.433,2.085 15.972,-4.24c3.252,-14.916 -5.132,-30.311 -17.221,-38.846c0.535,-0.439 1.606,-1.331 2.141,-1.784c9.248,5.928 16.479,15.711 18.03,26.757c0.988,4.995 0.494,10.154 1.509,15.149c1.619,2.552 4.172,4.295 6.422,6.271c-0.096,-6.889 1.29,-14.161 -1.523,-20.706c-5.804,-14.97 -13.475,-29.447 -24.123,-41.535c-5.612,-6.491 -13.241,-10.607 -19.608,-16.178c-5.502,-5.75 2.196,-13.722 -1.934,-19.924c-4.721,-6.312 -12.83,-8.054 -18.991,-12.473c-6.312,-4.377 -11.499,-11.128 -12.185,-18.99c-0.617,-5.187 1.441,-10.209 4.199,-14.477c2.785,0.974 7.121,2.443 7.945,-1.729c-0.151,-4.048 -3.499,-6.97 -5.475,-10.263c-7.382,-9.084 -2.717,-23.862 7.149,-29.104c4.006,-2.278 8.987,-1.345 13.049,-3.252c5.598,-4.35 3.101,-12.363 6.38,-17.975c3.733,-6.586 11.664,-12.212 19.485,-9.742c3.17,1.591 3.719,5.68 5.393,8.507c6.737,-1.99 10.538,-9.399 18.016,-9.838c13.09,-1.002 23.094,12.582 21.886,24.904c-0.082,12.377 -13.035,23.546 -25.234,20.006c-1.921,-0.85 -3.513,0.481 -5.091,1.372c3.472,4.501 7.04,9.606 6.765,15.574c-2.442,8.22 -8.603,14.669 -14.819,20.295c-1.729,1.742 -3.911,3.375 -4.405,5.941c1.633,6.751 8.576,9.976 12.363,15.341c1.51,2.799 1.647,6.092 2.264,9.18c2.69,17.988 6.065,35.868 8.412,53.898c1.015,-22.984 0.617,-46.009 1.056,-69.006c-0.164,-2.099 0.906,-3.897 2.388,-5.269c22.97,-22.764 45.789,-45.693 68.964,-68.265c24.013,-22.668 46.764,-46.653 70.996,-69.088c20.596,-20.473 41.398,-40.753 62.213,-60.992" style="fill:#97874f;fill-rule:nonzero;"/><path d="M342.841,153.246c3.76,-3.431 7.108,-8.837 12.94,-8.233c89.643,-0.096 179.272,0.068 268.915,-0.069c3.705,0.028 7.437,-0.206 11.128,0.302c4.254,1.976 7.396,5.64 10.772,8.809c19.032,18.456 37.83,37.158 56.656,55.82c14.174,13.255 27.183,27.704 41.576,40.725c30.353,30.462 60.869,60.76 91.276,91.18c2.168,2.333 5.187,4.666 4.721,8.274c0.233,11.417 0.192,22.86 -0.014,34.291c-16.301,-9.345 -35.841,-10.868 -54.091,-8.028c-12.5,2.1 -24.355,6.875 -35.648,12.487c-18.456,-19.238 -39.724,-36.252 -64.08,-47.408c-6.875,-3.334 -14.243,-5.489 -21.653,-7.314c-1.193,-13.378 -3.169,-26.908 -8.576,-39.298c-4.336,-9.825 -9.33,-19.485 -16.273,-27.731c-5.009,-5.956 -9.372,-12.556 -15.52,-17.427c-18.922,-15.492 -42.482,-23.917 -66.014,-29.419c-35.004,-8.535 -71.256,-8.535 -107.056,-8.205c-17.399,-0.206 -34.715,1.564 -52.032,2.84c-24.411,3.087 -48.3,10.854 -69.486,23.423c-8.823,5.653 -16.082,13.927 -20.116,23.628c-1.811,4.103 -1.866,9.4 -5.914,12.158c-7.066,5.529 -13.804,11.498 -19.635,18.332c-0.22,-0.138 -0.673,-0.412 -0.906,-0.549c-1.4,1.097 -2.772,2.236 -4.254,3.252c-9.015,2.538 -17.701,6.668 -24.863,12.788c-15.3,12.391 -27.306,28.39 -36.843,45.528c-7.684,13.955 -8.178,30.476 -7.629,46.023c0.727,16.287 6.106,32.177 14.641,46.008c6.23,9.948 16.631,16.727 27.91,19.608c-0.522,-9.893 -6.545,-18.593 -6.381,-28.568c-0.151,-4.24 1.427,-8.233 2.799,-12.157c17.962,4.528 36.747,7.176 55.244,4.884c-3.76,8.028 -6.793,16.933 -5.503,25.907c2.1,3.691 5.859,5.996 9.056,8.658c8.055,6.038 14.669,13.667 21.941,20.569c6.134,5.255 1.853,15.464 8.096,20.664c5.42,4.762 12.5,9.029 14.174,16.603c0.741,3.143 -2.03,5.366 -3.897,7.438c-15.725,14.435 -26.318,33.878 -32.479,54.159c-7.025,26.331 -9.687,53.994 -5.982,81.08c1.811,15.149 5.365,30.051 9.797,44.623c6.092,15.341 9.578,31.587 16.274,46.708c3.032,8.206 7.272,15.89 10.373,24.054c4.419,16.686 6.943,33.92 6.957,51.209c-0.974,-0.151 -2.936,-0.439 -3.924,-0.576c-20.5,-20.322 -41.11,-40.548 -61.432,-61.048c-10.236,-10.346 -21.2,-19.937 -31.052,-30.667c-13.186,-12.844 -26.4,-25.673 -39.202,-38.928c-24.397,-23.19 -47.641,-47.559 -71.27,-71.531c-2.429,-1.907 -2.909,-4.899 -2.717,-7.794c-0.027,-42.523 0.137,-85.046 0.343,-127.556c0.261,-19.237 -0.535,-38.516 0.878,-57.699c0.124,-28.294 -0.027,-56.588 0.22,-84.881c-0.11,-7.616 8.068,-10.909 12.294,-16.082c7.506,-8.974 16.947,-15.999 24.521,-24.891c12.569,-12.13 25.069,-24.315 37.583,-36.513c5.475,-4.569 10.127,-9.962 15.053,-15.08c12.02,-10.854 23.326,-22.462 34.811,-33.879c5.146,-4.459 10.127,-9.111 14.765,-14.106c20.129,-18.222 38.338,-38.475 58.728,-56.395" style="fill:#5c93c3;fill-rule:nonzero;"/><path d="M727.018,157.513c4.391,-4.898 10.017,-8.617 15.807,-11.649c5.283,-0.357 8.178,5.255 11.828,8.205c3.774,-2.881 7.341,-6.147 11.622,-8.288c4.597,0.481 7.273,5.297 10.044,8.549c2.855,2.552 -0.96,5.2 -2.867,6.861c-1.935,1.262 -4.021,3.444 -6.546,2.73c-2.552,-1.989 -4.473,-4.665 -7.039,-6.6c-3.375,-0.96 -6.517,2.84 -6.284,6.051c-0.233,11.485 0.055,22.984 0.274,34.469c1.743,1.139 3.472,2.319 5.365,3.252c3.307,-0.082 6.395,-1.798 9.77,-1.866c-3.773,5.488 -9.578,8.974 -14.298,13.516c-7.355,-3.445 -15.066,-5.956 -22.695,-8.645c2.483,-3.664 6.229,-7.122 5.9,-11.938c0.041,-10.469 0.563,-20.966 0.137,-31.422c-0.178,-6.244 -7.19,-3.389 -11.018,-3.225" style="fill:#97874f;fill-rule:nonzero;"/><path d="M399.868,214.842c17.317,-1.276 34.633,-3.046 52.032,-2.84c35.8,-0.33 72.052,-0.33 107.056,8.205c23.532,5.502 47.092,13.927 66.014,29.419c6.148,4.871 10.511,11.471 15.52,17.427c6.943,8.246 11.937,17.906 16.273,27.731c5.407,12.39 7.383,25.92 8.576,39.298c7.41,1.825 14.778,3.98 21.653,7.314c24.356,11.156 45.624,28.17 64.08,47.408c11.293,-5.612 23.148,-10.387 35.648,-12.487c18.25,-2.84 37.79,-1.317 54.091,8.028c-0.028,3.787 0.151,7.615 -0.302,11.416c-0.439,0.137 -1.317,0.425 -1.756,0.562c-15.218,-9.618 -34.071,-9.906 -51.429,-8.246c-14.353,2.209 -28.349,8.15 -39.216,17.893c-18.936,-21.31 -40.616,-40.891 -66.316,-53.665c-9.496,-4.954 -20.075,-7.41 -30.586,-9.043c-0.398,-15.354 -1.358,-31.079 -7.259,-45.459c-7.135,-19.677 -21.501,-36.157 -39.12,-47.23c-9.481,-6.243 -19.677,-11.554 -30.722,-14.339c-29.721,-8.466 -60.609,-11.869 -91.386,-13.461c-9.358,-0.892 -18.771,-0.837 -28.143,-0.549c-15.972,1.235 -32.054,0.508 -47.957,2.539c-21.982,3.101 -44.074,8.301 -63.503,19.388c-15.396,7.286 -27.073,22.888 -28.047,40.081c-0.522,3.979 2.223,7.314 5.324,9.399c5.845,4.089 12.239,8.014 15.862,14.408c2.826,5.187 -0.069,12.006 3.609,16.823c4.377,3.814 10.606,4.459 15.244,7.917c1.222,5.392 0.728,10.977 0.028,16.411c14.984,16.493 34.647,27.663 52.526,40.657c-15.039,-1.633 -29.117,-7.835 -42.304,-14.943c-12.994,-7.423 -26.126,-15.684 -35.511,-27.567c-8.617,3.102 -18.14,1.633 -25.906,-2.991c-7.41,-5.145 -12.309,-14.01 -12.281,-23.066c-0.604,-7.67 0.631,-15.354 3.567,-22.448c-3.526,-2.127 -6.998,-4.336 -10.51,-6.449c5.831,-6.834 12.569,-12.803 19.635,-18.332c4.048,-2.758 4.103,-8.055 5.914,-12.158c4.034,-9.701 11.293,-17.975 20.116,-23.628c21.186,-12.569 45.075,-20.336 69.486,-23.423" style="fill:#ced2d4;fill-rule:nonzero;"/><path d="M406.619,224.763c15.903,-2.031 31.985,-1.304 47.957,-2.539c9.372,-0.288 18.785,-0.343 28.143,0.549c30.777,1.592 61.665,4.995 91.386,13.461c11.045,2.785 21.241,8.096 30.722,14.339c17.619,11.073 31.985,27.553 39.12,47.23c5.901,14.38 6.861,30.105 7.259,45.459c10.511,1.633 21.09,4.089 30.586,9.043c25.7,12.774 47.38,32.355 66.316,53.665c10.867,-9.743 24.863,-15.684 39.216,-17.893c17.358,-1.66 36.211,-1.372 51.429,8.246c1.262,5.956 0.384,12.089 0.59,18.14c0.411,71.847 -1.153,143.693 -0.673,215.539c-36.033,36.115 -71.969,72.354 -108.469,107.989c-0.247,-0.014 -0.727,-0.041 -0.96,-0.055c-6.765,-20.898 -12.048,-42.372 -14.216,-64.272c-1.605,-26.908 0.48,-54.626 10.895,-79.764c3.28,-7.876 7.355,-15.395 11.554,-22.819c-12.679,6.71 -23.437,16.384 -33.248,26.73c4.268,-24.26 13.694,-47.339 26.195,-68.484c-12.432,5.214 -22.462,14.325 -33.069,22.352c-1.551,-31.024 1.441,-62.707 12.02,-92.072c5.351,-15.45 13.063,-30.201 23.395,-42.921c-1.372,-0.631 -2.717,-1.276 -4.116,-1.783c-9.605,7.684 -16.178,18.428 -22.325,28.925c-11.76,22.393 -18.085,47.243 -21.529,72.189c-8.343,58.81 1.921,118.307 15.903,175.43c4.844,18.771 9.07,37.83 16.479,55.806c0.687,1.893 -0.013,3.924 -0.137,5.886c-0.796,-0.123 -2.415,-0.384 -3.224,-0.507c-21.818,-62.214 -37.652,-127.309 -38.695,-193.502c-13.488,14.723 -32.575,25.714 -53.075,24.493c-8.11,-1.002 -17.399,-2.388 -22.888,-9.139c-2.456,-2.62 -3.458,-6.147 -4.61,-9.44c3.554,3.444 6.668,7.725 11.498,9.454c8.22,3.444 17.386,2.347 25.879,0.59c20.295,-5.049 37.172,-20.747 44.788,-40.081c2.607,-8.095 3.142,-16.877 7.382,-24.424c-3.376,-9.715 -2.95,-20.253 -6.381,-29.954c-3.691,-12.72 -11.43,-24.617 -22.64,-31.862c-11.87,-5.735 -25.811,-6.819 -38.585,-3.842c-8.014,1.866 -16.233,4.542 -22.449,10.182c-3.334,2.991 -6.765,6.12 -11.073,7.601c-7.684,2.951 -16.027,2.086 -24.068,2.168c-0.755,-1.042 -1.509,-2.071 -2.25,-3.087c6.765,0.288 13.749,-1.207 18.839,-5.928c10.058,-8.274 16.027,-21.405 15.547,-34.441c0.686,-11.773 -8.892,-21.351 -19.169,-25.385c-5.544,-2.47 -11.705,-1.646 -17.522,-1.001c-6.614,-5.956 -9.331,-16.247 -18.415,-19.224c-9.619,-2.429 -20.925,-0.22 -27.951,7.066c-3.43,3.225 -3.828,8.096 -4.679,12.46c-6.325,2.977 -13.762,5.667 -17.193,12.267c-2.909,4.981 -2.003,10.977 -1.852,16.466c1.386,15.272 4.199,30.379 7.56,45.308c2.854,12.212 -5.132,25.989 -17.207,29.46c-17.055,5.379 -35.662,6.12 -53.116,2.223c-7.396,-1.29 -12.802,-7.204 -16.767,-13.172c-6.806,-10.36 -7.081,-23.135 -10.552,-34.702c-3.623,-13.475 -9.852,-26.112 -17.125,-37.968c-4.336,-6.751 -11.156,-13.79 -19.896,-12.816c-8.357,-0.233 -16.699,4.418 -20.336,12.048c7.726,8.905 17.001,16.246 25.152,24.712c-6.23,-2.772 -11.842,-6.682 -17.769,-9.989c-12.871,-6.779 -27.649,-10.566 -42.208,-8.878c6.257,-2.868 12.802,-5.008 19.43,-6.82c4.13,-1.029 6.518,-4.843 8.96,-7.985c3.732,-5.105 9.029,-9.523 15.437,-10.539c5.434,-0.823 10.95,-0.535 16.425,-0.933c-8.535,-3.718 -17.674,-6.367 -27.018,-6.49c-9.166,-0.192 -18.799,-0.521 -27.142,3.911c-14.037,7.313 -31.614,9.193 -45.912,1.55c-0.521,4.569 -1.015,9.139 -1.468,13.722c-8.48,2.278 -19.54,3.512 -23.56,12.596c-4.089,10.264 -1.413,21.68 3.485,31.162c-8.493,-10.278 -14.545,-22.38 -18.661,-35.018c-6.614,-23.313 -3.046,-49.438 9.907,-69.966c5.104,-7.958 11.087,-15.739 19.416,-20.541c-5.626,17.605 -8.549,36.197 -7.149,54.694c8.027,-6.353 16.685,-12.734 27.059,-14.312c-2.868,5.818 -7.053,11.238 -7.986,17.811c2.868,5.859 9.701,7.725 15.752,7.574c13.955,0.892 26.716,-5.79 39.848,-9.317c23.422,-2.799 46.667,3.005 69.074,9.208c-2.964,-1.716 -6.133,-3.047 -9.427,-3.952c-18.236,-4.748 -33.892,-15.725 -49.178,-26.291c-12.349,-0.713 -26.153,-1.056 -36.156,-9.33c-5.969,-4.858 -10.058,-12.336 -9.825,-20.157c-0.672,-9.482 2.045,-18.717 5.859,-27.293c-3.306,-2.703 -6.586,-5.461 -9.605,-8.493c1.482,-1.016 2.854,-2.155 4.254,-3.252c0.233,0.137 0.686,0.411 0.906,0.549c3.512,2.113 6.984,4.322 10.51,6.449c-2.936,7.094 -4.171,14.778 -3.567,22.448c-0.028,9.056 4.871,17.921 12.281,23.066c7.766,4.624 17.289,6.093 25.906,2.991c9.385,11.883 22.517,20.144 35.511,27.567c13.187,7.108 27.265,13.31 42.304,14.943c-17.879,-12.994 -37.542,-24.164 -52.526,-40.657c0.7,-5.434 1.194,-11.019 -0.028,-16.411c-4.638,-3.458 -10.867,-4.103 -15.244,-7.917c-3.678,-4.817 -0.783,-11.636 -3.609,-16.823c-3.623,-6.394 -10.017,-10.319 -15.862,-14.408c-3.101,-2.085 -5.846,-5.42 -5.324,-9.399c0.974,-17.193 12.651,-32.795 28.047,-40.081c19.429,-11.087 41.521,-16.287 63.503,-19.388" style="fill:#0f1715;fill-rule:nonzero;"/><path d="M807.632,225.449c0.659,0.754 0.659,0.754 0,0" style="fill:#97874f;fill-rule:nonzero;"/><path d="M89.116,284.822c3.773,-9.619 8.589,-18.991 15.436,-26.798c-3.924,6.943 -7.643,14.174 -8.576,22.215c9.784,-7.012 21.118,-13.584 33.646,-12.144c-12.446,2.402 -24.85,7.63 -33.371,17.317c-7.355,9.07 -10.237,21.145 -9.523,32.657c8.315,-9.028 19.485,-15.244 31.669,-17.014c-11.965,5.131 -23.765,14.078 -26.921,27.374c-2.251,10.703 3.485,20.912 10.51,28.527c3.129,-1.591 5.873,-3.787 8.055,-6.531c-1.427,5.955 -2.017,12.212 -0.508,18.222c1.537,8.013 6.079,14.902 9.413,22.229c4.405,9.523 8.247,19.293 11.924,29.117c1.455,3.582 0.988,7.506 0.892,11.279c-6.257,-22.819 -18.826,-43.209 -32.04,-62.584c-2.058,-1.756 -4.692,-2.566 -6.956,-3.952c-3.801,-2.085 -6.408,-5.639 -9.002,-8.987c3.499,2.25 7.135,4.432 11.279,5.2c-2.14,-4.638 -4.583,-9.111 -6.86,-13.68c-10.758,-4.844 -21.667,-11.334 -27.293,-22.16c7.328,4.98 14.696,10.277 23.56,12.129c-1.701,-7.011 -2.744,-14.147 -2.799,-21.364c-10.538,-6.449 -14.435,-20.061 -11.06,-31.587c-0.411,9.564 4.734,17.893 11.156,24.507c3.019,-7.808 4.267,-16.178 7.369,-23.972" style="fill:#0f1715;fill-rule:nonzero;"/><path d="M882.813,260.727c12.116,14.298 17.193,32.753 21.639,50.55c6.723,-6.065 11.539,-14.407 11.141,-23.711c0.193,-0.027 0.577,-0.068 0.769,-0.096c0.727,7.053 0.576,14.463 -2.662,20.939c-1.894,4.213 -5.612,7.122 -9.139,9.921c0,7.259 -1.262,14.408 -2.95,21.433c8.617,-2.044 15.986,-6.957 23.066,-12.047c-5.53,10.414 -15.999,17.165 -26.633,21.556c-2.484,4.611 -5.077,9.18 -7.479,13.845c4.268,-0.425 7.904,-2.73 11.458,-4.967c-3.774,6.051 -10.044,9.441 -16.013,12.857c-6.244,8.535 -11.513,17.77 -17.468,26.524c-6.49,11.485 -12.349,23.519 -15.615,36.362c-0.261,-4.13 -0.535,-8.411 1.18,-12.281c4.789,-11.937 9.537,-23.944 15.656,-35.278c6.052,-9.495 9.482,-21.337 6.559,-32.493c2.498,1.455 4.583,5.05 7.808,4.693c8.59,-7.643 13.9,-20.486 9.523,-31.697c-4.144,-11.251 -14.367,-18.716 -24.946,-23.436c11.951,1.77 22.846,8.096 30.901,17.015c1.29,-14.627 -3.787,-30.915 -16.411,-39.395c-7.671,-6.175 -17.344,-8.521 -26.538,-11.361c12.583,-0.357 24.274,5.282 33.92,12.967c-0.096,-7.973 -4.46,-14.93 -7.766,-21.9" style="fill:#0f1715;fill-rule:nonzero;"/><path d="M465.814,291.106c0.247,-3.183 4.679,-2.936 6.943,-3.896c2.895,4.72 6.257,9.193 8.439,14.325c1.715,3.513 2.662,7.794 6.353,9.852c4.967,3.06 8.878,7.423 12.624,11.842c-5.269,0.055 -10.429,1.303 -15.368,3.018c-10.333,19.142 -30.874,31.121 -52.019,34.14c-15.615,1.166 -32.204,-0.357 -45.899,-8.521c-9.783,-6.093 -18.455,-15.122 -21.295,-26.565c-2.457,-10.689 -3.019,-22.586 2.305,-32.507c4.747,0.124 9.413,1.098 14.147,1.496c6.49,-3.307 13.515,-5.393 20.815,-5.804c-9.66,9.618 -16.918,22.832 -16.136,36.815c1.976,8.809 8.521,15.944 16.315,20.17c9.728,5.832 21.666,6.587 32.657,4.995c10.387,-2.072 21.104,-6.243 27.718,-14.929c7.176,-9.454 8.274,-22.037 6.888,-33.467c-0.563,-3.979 -3.019,-7.314 -4.487,-10.964" style="fill:#ced2d4;fill-rule:nonzero;"/><path d="M254.694,307.874c7.162,-6.12 15.848,-10.25 24.863,-12.788c3.019,3.032 6.299,5.79 9.605,8.493c-3.814,8.576 -6.531,17.811 -5.859,27.293c-0.233,7.821 3.856,15.299 9.825,20.157c10.003,8.274 23.807,8.617 36.156,9.33c15.286,10.566 30.942,21.543 49.178,26.291c3.294,0.905 6.463,2.236 9.427,3.952c-22.407,-6.203 -45.652,-12.007 -69.074,-9.208c-13.132,3.527 -25.893,10.209 -39.848,9.317c-6.051,0.151 -12.884,-1.715 -15.752,-7.574c0.933,-6.573 5.118,-11.993 7.986,-17.811c-10.374,1.578 -19.032,7.959 -27.059,14.312c-1.4,-18.497 1.523,-37.089 7.149,-54.694c-8.329,4.802 -14.312,12.583 -19.416,20.541c-12.953,20.528 -16.521,46.653 -9.907,69.966c4.116,12.638 10.168,24.74 18.661,35.018c-4.898,-9.482 -7.574,-20.898 -3.485,-31.162c4.02,-9.084 15.08,-10.318 23.56,-12.596c0.453,-4.583 0.947,-9.153 1.468,-13.722c14.298,7.643 31.875,5.763 45.912,-1.55c8.343,-4.432 17.976,-4.103 27.142,-3.911c9.344,0.123 18.483,2.772 27.018,6.49c-5.475,0.398 -10.991,0.11 -16.425,0.933c-6.408,1.016 -11.705,5.434 -15.437,10.539c-2.442,3.142 -4.83,6.956 -8.96,7.985c-6.628,1.812 -13.173,3.952 -19.43,6.82c14.559,-1.688 29.337,2.099 42.208,8.878c5.927,3.307 11.539,7.217 17.769,9.989c-8.151,-8.466 -17.426,-15.807 -25.152,-24.712c3.637,-7.63 11.979,-12.281 20.336,-12.048c8.74,-0.974 15.56,6.065 19.896,12.816c7.273,11.856 13.502,24.493 17.125,37.968c3.471,11.567 3.746,24.342 10.552,34.702c3.965,5.968 9.371,11.882 16.767,13.172c17.454,3.897 36.061,3.156 53.116,-2.223c12.075,-3.471 20.061,-17.248 17.207,-29.46c-3.361,-14.929 -6.174,-30.036 -7.56,-45.308c-0.151,-5.489 -1.057,-11.485 1.852,-16.466c3.431,-6.6 10.868,-9.29 17.193,-12.267c0.851,-4.364 1.249,-9.235 4.679,-12.46c7.026,-7.286 18.332,-9.495 27.951,-7.066c9.084,2.977 11.801,13.268 18.415,19.224c5.817,-0.645 11.978,-1.469 17.522,1.001c10.277,4.034 19.855,13.612 19.169,25.385c0.48,13.036 -5.489,26.167 -15.547,34.441c-5.09,4.721 -12.074,6.216 -18.839,5.928c0.741,1.016 1.495,2.045 2.25,3.087c8.041,-0.082 16.384,0.783 24.068,-2.168c4.308,-1.481 7.739,-4.61 11.073,-7.601c6.216,-5.64 14.435,-8.316 22.449,-10.182c12.774,-2.977 26.715,-1.893 38.585,3.842c11.21,7.245 18.949,19.142 22.64,31.862c3.431,9.701 3.005,20.239 6.381,29.954c-4.24,7.547 -4.775,16.329 -7.382,24.424c-7.616,19.334 -24.493,35.032 -44.788,40.081c-8.493,1.757 -17.659,2.854 -25.879,-0.59c-4.83,-1.729 -7.944,-6.01 -11.498,-9.454c1.152,3.293 2.154,6.82 4.61,9.44c5.489,6.751 14.778,8.137 22.888,9.139c20.5,1.221 39.587,-9.77 53.075,-24.493c1.043,66.193 16.877,131.288 38.695,193.502c0.809,0.123 2.428,0.384 3.224,0.507c-8.329,8.357 -16.575,16.823 -25.055,25.042c-6.436,6.367 -13.365,12.254 -19.252,19.155c-5.09,5.86 -11.087,10.772 -16.74,16.027c-6.435,6.587 -13.077,12.926 -19.869,19.142c-30.764,-0.343 -61.541,0.206 -92.305,-0.329c-10.03,-1.263 -20.116,-0.042 -30.215,-0.563c-11.691,-1.139 -23.601,0.59 -35.127,-2.182l0.178,-0.823c10.25,-9.482 16.878,-23.56 15.259,-37.679c-5.804,5.008 -10.168,11.416 -15.725,16.671c-4.666,-1.097 -9.427,-1.729 -14.202,-1.756c3.334,8.384 8.343,15.903 13.09,23.505l0.892,1.564c-6.517,0.11 -13.022,0.041 -19.539,0.137c-0.865,-1.07 -1.702,-2.154 -2.511,-3.238c-5.681,-7.725 -9.345,-16.658 -13.461,-25.261c-11.746,-26.085 -22.764,-52.65 -29.913,-80.422c-2.69,-8.576 -4.666,-17.619 -9.715,-25.207c-4.844,-7.643 -8.809,-15.807 -13.447,-23.574c-8.192,-13.858 -14.229,-28.87 -19.197,-44.142c-11.334,-30.942 -12.884,-64.656 -8.178,-97.053c-9.824,6.257 -17.399,15.423 -24.177,24.754c-12.171,18.401 -18.812,40.149 -20.692,62.049c-2.017,26.03 0.549,52.554 8.919,77.349c5.269,19.223 10.401,38.639 18.977,56.711c11.347,23.875 15.162,50.578 15.834,76.786c-2.579,0.11 -5.118,0.521 -7.629,1.07c-0.014,-17.289 -2.538,-34.523 -6.957,-51.209c-3.101,-8.164 -7.341,-15.848 -10.373,-24.054c-6.696,-15.121 -10.182,-31.367 -16.274,-46.708c-4.432,-14.572 -7.986,-29.474 -9.797,-44.623c-3.705,-27.086 -1.043,-54.749 5.982,-81.08c6.161,-20.281 16.754,-39.724 32.479,-54.159c1.867,-2.072 4.638,-4.295 3.897,-7.438c-1.674,-7.574 -8.754,-11.841 -14.174,-16.603c-6.243,-5.2 -1.962,-15.409 -8.096,-20.664c-7.272,-6.902 -13.886,-14.531 -21.941,-20.569c-3.197,-2.662 -6.956,-4.967 -9.056,-8.658c-1.29,-8.974 1.743,-17.879 5.503,-25.907c-18.497,2.292 -37.282,-0.356 -55.244,-4.884c-1.372,3.924 -2.95,7.917 -2.799,12.157c-0.164,9.975 5.859,18.675 6.381,28.568c-11.279,-2.881 -21.68,-9.66 -27.91,-19.608c-8.535,-13.831 -13.914,-29.721 -14.641,-46.008c-0.549,-15.547 -0.055,-32.068 7.629,-46.023c9.537,-17.138 21.543,-33.137 36.843,-45.528" style="fill:#ced2d4;fill-rule:nonzero;"/><path d="M415.305,303.264c6.531,0.686 12.528,3.965 19.155,3.965c1.07,1.455 2.237,2.882 3.129,4.474c-0.439,1.674 -1.18,3.224 -1.812,4.83c-6.065,-1.071 -12.225,-1.181 -18.304,-1.949c-5.118,-1.345 -2.731,-7.684 -2.168,-11.32" style="fill:#ced2d4;fill-rule:nonzero;"/><path d="M305.34,310.811c4.473,-1.098 9.893,-2.264 14.01,0.439c2.456,2.538 4.583,5.392 7.066,7.917c-0.178,3.513 0.234,7.094 -0.384,10.579c-2.538,4.954 -7.835,8.796 -13.612,7.328c-7.629,-2.347 -11.443,-10.031 -13.543,-17.139c1.386,-3.416 2.498,-7.876 6.463,-9.124" style="fill:#0f1715;fill-rule:nonzero;"/><path d="M305.532,319.51c1.674,-4.363 6.751,-5.886 10.909,-4.308c3.76,2.14 3.526,6.6 3.595,10.346c-3.966,3.142 -8.37,0.123 -12.363,-1.304c-0.714,-1.592 -1.427,-3.156 -2.141,-4.734" style="fill:#ced2d4;fill-rule:nonzero;"/><path d="M395.971,391.507c0.645,0.741 0.645,0.741 0,0" style="fill:#383da2;fill-rule:nonzero;"/><path d="M59.697,410.361c-0.22,-4.46 2.113,-9.358 6.641,-10.689c8.507,-2.402 17.714,0.164 24.932,4.967c4.254,2.964 9.18,6.12 10.977,11.238c-2.662,13.172 -14.586,22.078 -25.989,27.745c-9.056,-8.7 -16.561,-20.308 -16.561,-33.261" style="fill:#97874f;fill-rule:nonzero;"/><path d="M264.587,398.958c3.979,8.302 11.375,14.174 19.471,18.195c-0.014,0.453 -0.055,1.386 -0.069,1.839c-11.279,1.838 -22.983,0.219 -32.89,-5.626c4.542,-1.057 9.042,-2.251 13.502,-3.623c-0.014,-3.595 -0.069,-7.204 -0.014,-10.785" style="fill:#0f1715;fill-rule:nonzero;"/><path d="M66.475,406.368c0,-2.662 3.622,-3.005 4.885,-1.057c1.729,1.413 0.727,3.691 0.713,5.544c-2.387,-0.604 -6.613,-0.879 -5.598,-4.487" style="fill:#0f1715;fill-rule:nonzero;"/><path d="M885.502,415.863c8.398,-8.466 20.788,-13.872 32.822,-11.897c4.899,0.81 8.123,5.722 7.794,10.539c-0.275,13.2 -8.274,24.74 -17.591,33.466c-9.427,-4.747 -18.017,-11.924 -22.888,-21.405c-1.399,-3.321 -3.499,-7.876 -0.137,-10.703" style="fill:#97874f;fill-rule:nonzero;"/><path d="M916.43,408.563c4.295,-0.233 3.856,6.943 -0.411,6.518c-4.13,0.041 -2.868,-5.804 0.411,-6.518" style="fill:#0f1715;fill-rule:nonzero;"/><path d="M706.326,443.828c6.147,-10.497 12.72,-21.241 22.325,-28.925c1.399,0.507 2.744,1.152 4.116,1.783c-10.332,12.72 -18.044,27.471 -23.395,42.921c-10.579,29.365 -13.571,61.048 -12.02,92.072c10.607,-8.027 20.637,-17.138 33.069,-22.352c-12.501,21.145 -21.927,44.224 -26.195,68.484c9.811,-10.346 20.569,-20.02 33.248,-26.73c-4.199,7.424 -8.274,14.943 -11.554,22.819c-10.415,25.138 -12.5,52.856 -10.895,79.764c2.168,21.9 7.451,43.374 14.216,64.272c0.233,0.014 0.713,0.041 0.96,0.055l1.839,0.164c-4.926,5.064 -9.989,9.99 -14.998,14.984c0.124,-1.962 0.824,-3.993 0.137,-5.886c-7.409,-17.976 -11.635,-37.035 -16.479,-55.806c-13.982,-57.123 -24.246,-116.62 -15.903,-175.43c3.444,-24.946 9.769,-49.796 21.529,-72.189" style="fill:#ced2d4;fill-rule:nonzero;"/><path d="M103.606,419.101c2.305,1.908 4.418,4.034 6.243,6.408c-2.827,-0.37 -5.64,-0.823 -8.453,-1.317c0.728,-1.701 1.469,-3.403 2.21,-5.091" style="fill:#97874f;fill-rule:nonzero;"/><path d="M875.801,429.242c1.276,-2.731 3.567,-4.734 5.832,-6.655c0.96,1.523 1.921,3.059 2.895,4.596c-2.882,0.782 -5.818,1.455 -8.727,2.059" style="fill:#97874f;fill-rule:nonzero;"/><path d="M96.855,430.998c1.495,-2.237 3.087,-4.391 4.816,-6.463c1.523,2.95 2.95,5.941 4.254,9.001c-3.047,-0.795 -6.065,-1.646 -9.07,-2.538" style="fill:#97874f;fill-rule:nonzero;"/><path d="M105.842,427.279c2.086,0.11 4.185,0.247 6.285,0.385c1.358,2.373 2.648,4.802 3.828,7.286c-2.388,-0.192 -4.775,-0.412 -7.163,-0.645c-0.974,-2.36 -1.976,-4.693 -2.95,-7.026" style="fill:#97874f;fill-rule:nonzero;"/><path d="M879.108,436.583c1.564,-2.937 3.224,-5.832 5.036,-8.631c1.728,2.332 3.265,4.816 4.281,7.56l-2.772,-1.427c-0.014,4.227 0.11,9.139 -3.924,11.732c0.411,0.906 0.837,1.825 1.276,2.758c-0.426,1.688 -0.824,3.376 -1.222,5.077c-2.524,0.179 -5.049,0.357 -7.546,0.535c0.219,-2.168 0.466,-4.336 0.727,-6.476c1.962,-0.247 3.924,-0.467 5.914,-0.673l0.343,-1.783c-1.427,0.137 -4.268,0.439 -5.681,0.576c0.7,-2.113 1.359,-4.267 2.333,-6.285c2.058,-1.564 4.857,-1.262 7.245,-1.989c-1.839,-0.851 -3.979,-1.551 -6.01,-0.974" style="fill:#97874f;fill-rule:nonzero;"/><path d="M868.474,437.886c2.044,-4.542 5.735,-8.439 11.238,-7.355c-1.194,2.566 -2.429,5.132 -3.664,7.698c-2.539,-0.123 -5.063,-0.219 -7.574,-0.343" style="fill:#97874f;fill-rule:nonzero;"/><path d="M91.297,436.5c1.674,-1.674 3.39,-3.293 5.146,-4.871c0.796,2.758 1.523,5.544 2.195,8.357c-2.47,-1.126 -4.912,-2.292 -7.341,-3.486" style="fill:#97874f;fill-rule:nonzero;"/><path d="M98.707,433.358c2.813,0.782 5.64,1.578 8.466,2.374c0.7,2.305 1.386,4.624 2.045,6.957c-2.58,-0.426 -5.228,-0.604 -7.684,-1.537c-1.345,-2.443 -2.017,-5.173 -2.827,-7.794" style="fill:#97874f;fill-rule:nonzero;"/><path d="M110.123,436.775c2.388,-0.055 4.762,-0.083 7.149,-0.11c0.48,2.086 0.947,4.185 1.414,6.312c-2.292,0 -4.583,0.014 -6.861,0.027c-0.577,-2.085 -1.139,-4.157 -1.702,-6.229" style="fill:#97874f;fill-rule:nonzero;"/><path d="M886.188,443.567c0.796,-2.868 1.853,-5.626 3.156,-8.288c1.482,1.756 2.936,3.554 4.405,5.365c-2.525,1.002 -5.036,1.99 -7.561,2.923" style="fill:#97874f;fill-rule:nonzero;"/><path d="M84.711,441.783c1.441,-1.331 2.895,-2.634 4.363,-3.924c0.975,2.552 1.702,5.159 2.374,7.821c-2.278,-1.249 -4.514,-2.552 -6.737,-3.897" style="fill:#97874f;fill-rule:nonzero;"/><path d="M867.088,440.164c2.675,-0.124 5.351,-0.233 8.041,-0.329c-0.687,2.195 -1.345,4.418 -2.004,6.627c-2.497,-0.096 -4.981,-0.192 -7.451,-0.274c0.453,-2.031 0.933,-4.034 1.414,-6.024" style="fill:#97874f;fill-rule:nonzero;"/><path d="M93.369,447.395c-0.219,-2.676 -0.439,-5.338 -0.59,-7.999c2.209,0.837 4.432,1.715 6.641,2.579c0.398,2.456 0.783,4.912 1.181,7.382c-2.415,-0.645 -4.817,-1.303 -7.232,-1.962" style="fill:#97874f;fill-rule:nonzero;"/><path d="M895.354,441.522c1.715,1.414 3.403,2.854 5.105,4.336c-2.361,1.29 -4.707,2.58 -7.081,3.815c0.604,-2.731 1.276,-5.447 1.976,-8.151" style="fill:#97874f;fill-rule:nonzero;"/><path d="M80.567,443.43c1.894,-0.604 2.566,0.068 2.003,2.03c-1.907,0.59 -2.566,-0.096 -2.003,-2.03" style="fill:#97874f;fill-rule:nonzero;"/><path d="M101.89,443.251c2.621,0.439 5.242,0.865 7.877,1.318c0.178,2.072 0.356,4.157 0.535,6.243c-2.429,-0.124 -4.858,-0.233 -7.286,-0.343c-0.385,-2.415 -0.755,-4.816 -1.126,-7.218" style="fill:#97874f;fill-rule:nonzero;"/><path d="M84.725,444.431c2.332,1.098 4.638,2.223 6.943,3.376c0.027,1.866 0.055,3.746 0.096,5.626c-2.305,-1.331 -4.569,-2.703 -6.82,-4.117c-0.082,-1.633 -0.151,-3.252 -0.219,-4.885" style="fill:#97874f;fill-rule:nonzero;"/><path d="M112.291,444.431c2.168,0.028 4.35,0.055 6.518,0.096c0.11,1.222 0.22,2.457 0.343,3.691c-0.398,4.268 -1.125,11.801 -7.327,10.086c0.178,-1.88 0.507,-3.746 1.043,-5.544c1.07,0.165 3.197,0.508 4.267,0.686c0.027,-0.672 0.069,-2.003 0.096,-2.675c-1.249,0.013 -3.718,0.027 -4.967,0.041c0,-2.127 0.014,-4.254 0.027,-6.381" style="fill:#97874f;fill-rule:nonzero;"/><path d="M885.927,445.296c2.182,-0.741 4.46,-1.18 6.724,-1.674c-0.521,2.579 -1.029,5.187 -1.537,7.78c-2.429,0.549 -4.83,1.098 -7.245,1.605c0.522,-2.607 0.919,-5.296 2.058,-7.711" style="fill:#97874f;fill-rule:nonzero;"/><path d="M864.645,448.315c2.703,-0.179 5.42,-0.316 8.151,-0.426c-0.247,2.154 -0.494,4.309 -0.727,6.463c-2.361,-0.192 -4.679,-0.384 -7.012,-0.576c-0.151,-1.825 -0.288,-3.65 -0.412,-5.461" style="fill:#97874f;fill-rule:nonzero;"/><path d="M902.215,447.752c1.921,-0.686 2.566,-0.055 1.921,1.894c-1.935,0.686 -2.58,0.041 -1.921,-1.894" style="fill:#97874f;fill-rule:nonzero;"/><path d="M94.097,449.234c2.236,0.686 4.486,1.399 6.723,2.113c-0.096,1.976 -0.206,3.952 -0.316,5.941c-2.017,-0.823 -4.034,-1.646 -6.037,-2.469c-0.124,-1.867 -0.247,-3.733 -0.37,-5.585" style="fill:#97874f;fill-rule:nonzero;"/><path d="M893.186,452.047c1.894,-1.921 4.679,-2.566 7.08,-3.678c-0.205,1.688 -0.397,3.39 -0.576,5.091c-2.415,1.345 -4.83,2.676 -7.272,3.938c0.151,-1.797 0.411,-3.581 0.768,-5.351" style="fill:#97874f;fill-rule:nonzero;"/><path d="M103.098,452.308c2.442,0.205 4.871,0.425 7.313,0.644c-0.439,1.839 -0.315,3.911 -1.303,5.599c-1.894,0.027 -3.787,0 -5.681,-0.069c-0.123,-2.072 -0.219,-4.13 -0.329,-6.174" style="fill:#97874f;fill-rule:nonzero;"/><path d="M883.471,455.134c2.388,-0.782 4.803,-1.537 7.218,-2.278c-0.261,1.894 -0.508,3.815 -0.755,5.722c-2.099,0.741 -4.199,1.482 -6.271,2.237c-0.041,-1.413 -0.137,-4.254 -0.192,-5.681" style="fill:#97874f;fill-rule:nonzero;"/><path d="M864.069,455.326c2.552,0.165 5.132,0.384 7.711,0.618c0.179,2.127 0.357,4.253 0.536,6.394c-4.048,-0.549 -6.683,-3.485 -8.247,-7.012" style="fill:#97874f;fill-rule:nonzero;"/><path d="M61.467,466.317c4.816,-0.466 9.879,-1.152 14.586,0.247c3.334,3.211 4.157,8.151 4.665,12.569c0.535,8.604 -0.727,17.454 -4.254,25.358c-12.953,0.974 -27.017,-3.787 -35.69,-13.736c-2.963,-3.32 -3.581,-8.576 -0.946,-12.267c4.994,-6.984 13.268,-11.018 21.639,-12.171" style="fill:#97874f;fill-rule:nonzero;"/><path d="M80.155,468.499c2.896,0.041 5.791,0.123 8.672,0.288c-2.236,1.935 -4.734,3.554 -7.327,5.008c-0.453,-1.783 -0.906,-3.54 -1.345,-5.296" style="fill:#97874f;fill-rule:nonzero;"/><path d="M906.469,471.188c1.276,-3.883 5.859,-3.375 9.138,-3.581c10.785,-0.082 22.956,2.854 29.529,12.116c3.197,4.46 1.235,10.429 -2.401,13.955c-9.002,8.713 -21.598,12.981 -33.975,13.392c-4.226,-11.238 -7.547,-24.452 -2.291,-35.882" style="fill:#97874f;fill-rule:nonzero;"/><path d="M91.366,469.857c2.827,-0.59 5.598,0.906 8.343,1.427c-1.633,1.688 -3.321,3.349 -4.995,4.995c-2.593,-0.96 -5.187,-1.935 -7.766,-2.909c1.44,-1.221 2.826,-2.497 4.418,-3.513" style="fill:#97874f;fill-rule:nonzero;"/><path d="M895.436,470.969c2.909,-0.22 5.832,-0.343 8.769,-0.453c-0.206,1.331 -0.618,3.993 -0.824,5.338c-2.868,-1.263 -5.571,-2.854 -7.945,-4.885" style="fill:#97874f;fill-rule:nonzero;"/><path d="M884.706,473.837c2.841,-0.659 5.708,-1.222 8.59,-1.757c1.454,1.125 2.936,2.264 4.432,3.403c-2.635,1.002 -5.146,2.731 -8.013,2.813c-1.976,-1.125 -3.458,-2.868 -5.009,-4.459" style="fill:#97874f;fill-rule:nonzero;"/><path d="M96.457,476.951c1.893,-1.55 3.787,-3.073 5.694,-4.596c1.77,1.18 3.54,2.387 5.283,3.622c-1.839,1.359 -3.211,3.732 -5.516,4.336c-1.949,-0.919 -3.691,-2.181 -5.461,-3.362" style="fill:#97874f;fill-rule:nonzero;"/><path d="M82.172,474.139c3.184,1.042 6.34,2.154 9.455,3.402c-2.841,1.565 -5.736,3.019 -8.686,4.35c-0.275,-2.593 -0.535,-5.173 -0.769,-7.752" style="fill:#97874f;fill-rule:nonzero;"/><path d="M877.008,478.625c1.894,-0.919 3.472,-3.252 5.818,-2.881c2.017,0.96 3.815,2.264 5.708,3.472c-1.907,1.399 -3.732,2.922 -5.845,4.006c-2.127,-1.221 -3.883,-2.991 -5.681,-4.597" style="fill:#97874f;fill-rule:nonzero;"/><path d="M893.008,480.08c3.005,-1.537 6.133,-2.813 9.33,-3.924c-0.054,2.607 -0.137,5.228 -0.178,7.862c-3.115,-1.207 -6.175,-2.497 -9.152,-3.938" style="fill:#97874f;fill-rule:nonzero;"/><path d="M103.496,481.685c1.825,-1.605 3.663,-3.197 5.516,-4.775c1.221,1.249 2.47,2.484 3.595,3.842c-1.235,1.894 -2.786,3.541 -4.254,5.256c-1.619,-1.441 -3.252,-2.896 -4.857,-4.323" style="fill:#97874f;fill-rule:nonzero;"/><path d="M85.987,482.468c2.635,-1.414 5.31,-2.772 7.972,-4.144c1.88,1.125 3.787,2.236 5.571,3.526c-1.701,2.278 -4.446,3.28 -6.833,4.611c-2.237,-1.359 -4.473,-2.69 -6.71,-3.993" style="fill:#97874f;fill-rule:nonzero;"/><path d="M625.643,479.476c12.637,-1.029 25.714,4.638 33.288,14.874c1.963,2.58 0.947,6.01 0.879,8.988c-2.086,-0.357 -5.393,0.727 -6.079,-2.031c-2.593,-6.586 -7.08,-12.473 -13.31,-15.972c-4.473,-3.06 -10.127,-3.238 -14.778,-5.859" style="fill:#0f1715;fill-rule:nonzero;"/><path d="M43.135,480.821c2.154,-0.22 5.474,-1.564 6.682,1.043c1.647,1.619 -0.796,4.212 -2.662,3.842c-3.156,0.837 -3.43,-2.827 -4.02,-4.885" style="fill:#0f1715;fill-rule:nonzero;"/><path d="M871.808,484.046c1.29,-1.482 2.58,-2.964 3.911,-4.433c1.893,1.633 3.787,3.266 5.694,4.926c-1.633,1.428 -3.238,2.896 -4.857,4.337c-1.592,-1.62 -3.17,-3.225 -4.748,-4.83" style="fill:#97874f;fill-rule:nonzero;"/><path d="M936.889,481.178c2.045,-0.535 5.173,0.59 4.213,3.224c-0.398,3.458 -6.408,3.39 -6.861,0.041c-0.494,-1.385 1.372,-3.005 2.648,-3.265" style="fill:#0f1715;fill-rule:nonzero;"/><path d="M885.831,483.963c1.688,-1.015 3.472,-1.852 5.256,-2.73c2.675,1.097 5.365,2.168 8.041,3.279c-2.978,1.413 -6.175,5.365 -9.715,3.17c-1.372,-1.002 -4.57,-1.441 -3.582,-3.719" style="fill:#97874f;fill-rule:nonzero;"/><path d="M83.037,483.126c2.484,1.07 4.94,2.182 7.368,3.376c-2.442,1.523 -5.186,2.442 -7.972,3.114c0.179,-2.168 0.384,-4.336 0.604,-6.49" style="fill:#97874f;fill-rule:nonzero;"/><path d="M94.728,487.311c2.319,-1.399 4.651,-2.744 6.998,-4.103c1.482,1.359 2.977,2.717 4.459,4.103c-1.921,1.565 -3.842,3.129 -5.777,4.707c-1.893,-1.578 -3.8,-3.142 -5.68,-4.707" style="fill:#97874f;fill-rule:nonzero;"/><path d="M113.362,483.003c3.389,0.782 1.729,5.708 0.795,8.095c-2.593,0.522 -3.581,-2.346 -5.145,-3.759c1.413,-1.496 2.813,-2.992 4.35,-4.336" style="fill:#97874f;fill-rule:nonzero;"/><path d="M869.338,487.243c1.07,-4.076 4.569,1.77 6.545,2.675c-1.399,1.866 -2.799,3.746 -4.212,5.612c-1.619,-2.415 -3.499,-5.255 -2.333,-8.287" style="fill:#97874f;fill-rule:nonzero;"/><path d="M882.854,485.788c2.236,1.386 5.447,1.921 6.806,4.309c-1.565,1.756 -3.417,3.238 -5.201,4.747c-1.948,-1.578 -3.883,-3.142 -5.818,-4.706c1.386,-1.468 2.813,-2.909 4.213,-4.35" style="fill:#97874f;fill-rule:nonzero;"/><path d="M895.107,488.34c2.305,-1.07 4.624,-2.126 6.971,-3.156c0.123,2.182 0.247,4.364 0.398,6.546c-2.141,-1.386 -3.952,0 -5.722,0.878l3.073,0.782c-2.085,1.743 -4.157,3.513 -6.229,5.283c-2.319,-1.071 -4.652,-2.141 -6.93,-3.225c2.978,-2.566 6.093,-6.202 10.47,-3.567c-0.686,-1.194 -1.359,-2.374 -2.031,-3.541" style="fill:#97874f;fill-rule:nonzero;"/><path d="M84.985,491.044c2.402,-0.906 4.789,-2.072 7.383,-2.347c2.195,0.906 3.924,2.566 5.804,3.979c-2.031,1.167 -4.075,2.36 -6.12,3.541c-2.374,-1.702 -4.734,-3.431 -7.067,-5.173" style="fill:#97874f;fill-rule:nonzero;"/><path d="M101.835,492.965c1.908,-1.345 3.815,-2.676 5.736,-3.993c1.208,1.303 2.401,2.607 3.609,3.924c-1.688,1.619 -3.403,3.224 -5.105,4.83c-1.427,-1.606 -2.84,-3.183 -4.24,-4.761" style="fill:#97874f;fill-rule:nonzero;"/><path d="M874.442,496.546c-0.123,-1.907 1.784,-3.266 2.553,-4.885c2.154,1.345 4.336,2.703 6.517,4.062c-1.591,1.619 -3.183,3.252 -4.761,4.871c-1.482,-1.331 -2.991,-2.594 -4.309,-4.048" style="fill:#97874f;fill-rule:nonzero;"/><path d="M896.616,499.633c1.249,-2.593 3.664,-4.144 5.983,-5.667c0.631,1.935 1.29,3.883 1.921,5.832c-2.648,-0.028 -5.296,-0.082 -7.904,-0.165" style="fill:#97874f;fill-rule:nonzero;"/><path d="M93.177,496.916c2.113,-0.864 4.226,-1.729 6.34,-2.566c1.399,1.331 2.785,2.676 4.185,4.035c-2.292,0.919 -4.57,1.852 -6.861,2.771c-1.235,-1.413 -2.456,-2.84 -3.664,-4.24" style="fill:#97874f;fill-rule:nonzero;"/><path d="M885.461,496.958c2.168,0.85 4.336,1.701 6.531,2.565c-1.331,1.4 -2.62,2.827 -3.924,4.24c-1.77,-0.988 -3.554,-1.975 -5.297,-2.95c0.879,-1.29 1.784,-2.579 2.69,-3.855" style="fill:#97874f;fill-rule:nonzero;"/><path d="M79.771,501.101c2.251,-0.644 3.033,0.138 2.333,2.333c-2.264,0.631 -3.033,-0.137 -2.333,-2.333" style="fill:#97874f;fill-rule:nonzero;"/><path d="M105.458,512.929c1.99,-0.109 3.979,-0.219 5.969,-0.301c0.11,1.921 0.219,3.855 0.315,5.804c-2.387,0.206 -4.788,0.411 -7.176,0.631c0.288,-2.058 0.59,-4.089 0.892,-6.134" style="fill:#97874f;fill-rule:nonzero;"/><path d="M113.897,512.408c3.252,0.755 5.626,3.046 7.698,5.53l-1.729,-0.179c0.013,1.62 0.027,3.252 0.068,4.885l1.564,-0.027c-0.096,4.926 -4.761,4.185 -8.301,4.254c0.288,-1.88 0.521,-3.76 1.002,-5.585c1.029,-0.151 3.101,-0.453 4.13,-0.604c0.055,-0.549 0.178,-1.633 0.233,-2.168c-5.214,2.278 -4.432,-2.868 -4.665,-6.106" style="fill:#97874f;fill-rule:nonzero;"/><path d="M96.251,515.838c2.14,-0.686 4.295,-1.372 6.449,-2.003c-0.137,1.262 -0.425,3.787 -0.563,5.063c-1.715,1.729 -4.473,1.853 -6.682,2.745c0.261,-1.949 0.521,-3.87 0.796,-5.805" style="fill:#97874f;fill-rule:nonzero;"/><path d="M863.108,522.836c1.057,-3.526 3.541,-6.01 7.04,-7.08c0.205,2.086 0.411,4.185 0.617,6.298c-2.552,0.288 -5.118,0.535 -7.657,0.782" style="fill:#97874f;fill-rule:nonzero;"/><path d="M873.468,516.223c2.168,-0.412 4.405,-0.385 6.628,-0.439c-0.22,2.428 -0.426,4.884 -0.631,7.327c1.509,2.415 2.401,5.104 3.224,7.835c-2.827,-0.302 -5.612,-0.604 -8.398,-0.919c-0.37,-1.949 -0.754,-3.911 -1.097,-5.846c1.756,-0.192 3.512,-0.37 5.283,-0.549l-0.055,-1.756c-1.414,-0.055 -4.227,-0.165 -5.626,-0.22c0.151,-1.825 0.37,-3.636 0.672,-5.433" style="fill:#97874f;fill-rule:nonzero;"/><path d="M85.452,526.322c-0.192,-5.118 4.089,-7.616 8.26,-9.153c0.549,5.256 -4.006,7.684 -8.26,9.153" style="fill:#97874f;fill-rule:nonzero;"/><path d="M882.236,516.922c2.127,0.467 4.295,0.961 6.449,1.455c0.289,1.935 0.577,3.883 0.879,5.845c-2.319,-0.549 -4.638,-1.111 -6.93,-1.646c-0.151,-1.894 -0.288,-3.774 -0.398,-5.654" style="fill:#97874f;fill-rule:nonzero;"/><path d="M104.648,521.423c2.264,-0.672 4.638,-0.809 6.985,-1.111c-0.234,1.921 -0.371,3.883 -0.81,5.804c-2.429,1.468 -5.489,1.331 -8.192,1.976c0.618,-2.251 1.125,-4.515 2.017,-6.669" style="fill:#97874f;fill-rule:nonzero;"/><path d="M891.992,524.689c-0.26,-1.715 -0.274,-3.458 -0.302,-5.173c3.993,1.811 8.247,4.116 8.069,9.18c-2.662,-1.167 -5.558,-2.059 -7.767,-4.007" style="fill:#97874f;fill-rule:nonzero;"/><path d="M95.62,523.536c1.934,-0.837 3.993,-1.372 6.023,-1.948c-0.247,2.332 -0.535,4.693 -0.823,7.039c-2.497,0.96 -5.008,1.893 -7.533,2.799c0.659,-2.662 0.782,-5.557 2.333,-7.89" style="fill:#97874f;fill-rule:nonzero;"/><path d="M81.678,524.895c2.21,-0.81 2.978,-0.083 2.278,2.195c-2.209,0.796 -2.964,0.069 -2.278,-2.195" style="fill:#97874f;fill-rule:nonzero;"/><path d="M863.41,525.018c2.374,-0.412 4.762,-0.809 7.177,-1.194c0.274,2.168 0.576,4.364 0.864,6.546c-2.264,-0.055 -4.501,-0.179 -6.723,-0.371c-0.673,-1.605 -0.947,-3.321 -1.318,-4.981" style="fill:#97874f;fill-rule:nonzero;"/><path d="M87.73,527.447c1.523,-0.741 3.032,-1.468 4.569,-2.168c-0.412,1.948 -0.823,3.91 -1.249,5.886c-1.166,0.865 -2.332,1.757 -3.471,2.662c7.162,3.966 12.198,11.403 14.298,19.211c1.207,4.198 -3.266,6.819 -5.914,9.193c-8.59,6.682 -20.144,11.005 -30.915,7.506c-5.379,-2.223 -6.504,-8.878 -5.448,-13.996c1.908,-10.621 7.808,-20.624 16.137,-27.471c3.623,-3.005 7.176,1.935 10.072,3.664c0.713,-1.455 1.317,-2.991 1.921,-4.487" style="fill:#97874f;fill-rule:nonzero;"/><path d="M606.186,526.335c2.346,-1.536 5.035,-0.315 7.533,0.083c9.564,2.25 18.922,6.229 26.524,12.555c5.763,4.391 6.943,14.449 1.056,19.238c-0.686,-0.11 -2.058,-0.33 -2.744,-0.439c-2.511,-4.762 -3.033,-10.415 -6.298,-14.806c-6.079,-8.727 -15.794,-14.38 -26.071,-16.631" style="fill:#0f1715;fill-rule:nonzero;"/><path d="M882.977,524.524c2.292,0.7 5.242,0.261 7.177,1.88c0.96,2.456 1.344,5.077 2.003,7.643c-2.442,-0.768 -4.899,-1.372 -7.204,-2.415c-1.029,-2.25 -1.399,-4.748 -1.976,-7.108" style="fill:#97874f;fill-rule:nonzero;"/><path d="M901.968,527.241c4.583,0.247 -2.168,4.089 0,0" style="fill:#97874f;fill-rule:nonzero;"/><path d="M112.95,528.545c2.319,-0.042 4.638,-0.083 6.957,-0.083c-0.563,2.086 -1.125,4.185 -1.715,6.271c-2.388,0.11 -4.776,0.22 -7.163,0.357c0.631,-2.196 1.276,-4.364 1.921,-6.545" style="fill:#97874f;fill-rule:nonzero;"/><path d="M893.104,527.378c2.868,1.427 5.42,3.403 7.656,5.722c2.086,-1.619 4.158,-3.444 6.765,-4.157c9.056,6.353 15.794,16.218 18.346,27.017c1.139,4.789 1.358,10.799 -2.937,14.161c-5.296,3.636 -12.322,3.197 -18.277,1.784c-7.848,-2.456 -15.821,-6.504 -20.733,-13.269c0.247,-9.783 7.272,-18.044 14.71,-23.738c-1.537,-0.632 -3.17,-1.194 -4.734,-1.674c-0.302,-1.963 -0.563,-3.911 -0.796,-5.846" style="fill:#97874f;fill-rule:nonzero;"/><path d="M102.48,530.37c2.278,-1.359 5.146,-1.057 7.657,-1.592c-0.563,2.003 -1.235,3.965 -2.003,5.9c-2.662,1.798 -6.01,2.086 -9.002,3.019c1.043,-2.484 1.839,-5.091 3.348,-7.327" style="fill:#97874f;fill-rule:nonzero;"/><path d="M92.546,533.8c2.36,-0.837 4.72,-1.66 7.094,-2.442c-0.933,2.689 -1.976,5.337 -3.06,7.972c-1.372,-1.839 -2.703,-3.678 -4.034,-5.53" style="fill:#97874f;fill-rule:nonzero;"/><path d="M337.833,556.907c6.778,-9.331 14.353,-18.497 24.177,-24.754c-4.706,32.397 -3.156,66.111 8.178,97.053c4.968,15.272 11.005,30.284 19.197,44.142c4.638,7.767 8.603,15.931 13.447,23.574c5.049,7.588 7.025,16.631 9.715,25.207c7.149,27.772 18.167,54.337 29.913,80.422c4.116,8.603 7.78,17.536 13.461,25.261c0.027,0.7 0.109,2.113 0.137,2.813c-23.766,0.521 -47.573,0.014 -71.352,0.11c-7.945,-0.275 -16,0.768 -23.835,-0.933c-0.672,-26.208 -4.487,-52.911 -15.834,-76.786c-8.576,-18.072 -13.708,-37.488 -18.977,-56.711c-8.37,-24.795 -10.936,-51.319 -8.919,-77.349c1.88,-21.9 8.521,-43.648 20.692,-62.049" style="fill:#0f1715;fill-rule:nonzero;"/><path d="M864.686,532.743c2.498,-0.398 5.009,-0.754 7.547,-1.084c0.837,2.182 1.674,4.391 2.498,6.614c-2.415,-0.014 -4.83,0.055 -7.218,-0.137c-1.482,-1.468 -1.948,-3.595 -2.827,-5.393" style="fill:#97874f;fill-rule:nonzero;"/><path d="M875.225,531.824c2.469,0.206 4.967,0.329 7.423,0.823c1.605,2.374 2.607,5.105 3.801,7.712c-3.156,-0.645 -6.271,-1.331 -9.399,-2.017c-0.618,-2.182 -1.249,-4.364 -1.825,-6.518" style="fill:#97874f;fill-rule:nonzero;"/><path d="M885.9,534.404c2.47,0.645 4.967,1.331 7.451,2.058c-1.578,1.825 -3.17,3.622 -4.803,5.393c-0.919,-2.484 -1.811,-4.968 -2.648,-7.451" style="fill:#97874f;fill-rule:nonzero;"/><path d="M109.767,537.23c2.318,-0.26 4.637,-0.507 6.97,-0.713c-1.413,2.634 -2.991,5.173 -4.734,7.615c-2.017,-0.164 -4.02,-0.315 -6.024,-0.453c1.263,-2.154 2.525,-4.308 3.788,-6.449" style="fill:#97874f;fill-rule:nonzero;"/><path d="M97.774,540.002c2.977,-0.851 5.982,-1.688 8.988,-2.442c-1.524,3.005 -3.225,5.941 -4.995,8.823c-1.359,-2.113 -2.69,-4.24 -3.993,-6.381" style="fill:#97874f;fill-rule:nonzero;"/><path d="M129.896,541.827c-0.261,-1.756 0.343,-2.456 1.77,-2.113c0.028,5.338 -1.262,10.634 -3.334,15.546c-4.652,11.403 -9.592,22.71 -15.533,33.509c-4.844,9.001 -7.41,19.786 -4.391,29.817c-2.237,-2.374 -4.857,-4.35 -7.67,-5.997c-8.11,7.341 -13.585,18.593 -10.923,29.653c3.294,12.184 13.791,20.651 24.727,25.933c-11.677,-1.605 -21.735,-8.37 -29.955,-16.493c-0.919,11.636 1.963,23.862 9.345,33.069c8.535,9.674 20.953,14.366 33.137,17.495c-12.637,0.782 -23.944,-5.694 -33.796,-12.843c0.824,8.233 4.693,15.642 8.535,22.832c-12.102,-14.641 -17.948,-33.096 -21.872,-51.387c-7.794,5.461 -12.007,14.655 -12.075,24.068c-2.854,-11.554 0.727,-25.66 11.787,-31.601c-0.083,-7.122 1.043,-14.175 2.922,-21.022c-8.891,1.482 -16.424,6.518 -23.518,11.76c5.2,-10.991 16.465,-16.878 26.866,-21.968c3.252,-4.048 5.16,-9.002 7.451,-13.612c-3.924,1.001 -7.56,2.772 -11.032,4.816c3.719,-5.763 9.537,-9.344 15.629,-12.089c9.701,-13.515 19.059,-27.484 25.975,-42.674c2.319,-5.434 5.118,-10.785 5.955,-16.699" style="fill:#0f1715;fill-rule:nonzero;"/><path d="M869.283,540.043c2.003,-0.192 4.062,-0.315 6.079,0.041c2.017,1.949 3.101,4.597 4.542,6.971c-2.306,-0.027 -4.583,-0.041 -6.847,-0.055c-1.277,-2.237 -4.282,-4.116 -3.774,-6.957" style="fill:#97874f;fill-rule:nonzero;"/><path d="M879.025,540.482c2.937,0.563 5.887,1.194 8.823,1.853c-1.138,2.428 -2.346,4.816 -3.581,7.19c-2.127,-2.786 -3.938,-5.791 -5.242,-9.043" style="fill:#97874f;fill-rule:nonzero;"/><path d="M851.788,543.35c6.175,16.466 13.584,32.616 24.26,46.708c3.691,4.529 6.024,10.196 10.222,14.243c6.038,2.607 11.513,6.353 15.355,11.801c-3.513,-2.127 -7.135,-4.213 -11.293,-4.665c2.676,4.528 4.391,9.893 8.027,13.721c10.14,4.83 20.98,10.717 26.085,21.282c-7.08,-4.871 -14.298,-10.071 -22.943,-11.608c1.633,7.012 3.074,14.106 3.005,21.351c10.58,6.01 13.585,19.086 11.993,30.393c-1.331,-8.713 -4.556,-17.907 -12.404,-22.792c-3.801,18.154 -9.441,36.5 -21.186,51.223c3.842,-7.231 7.327,-14.764 8.534,-22.929c-9.92,7.122 -21.103,14.147 -33.878,13.146c11.979,-2.951 24.109,-7.643 32.506,-17.084c7.629,-9.344 10.566,-21.831 9.633,-33.7c-8.219,8.096 -18.085,15.025 -29.749,16.782c10.443,-5.091 20.322,-13.105 24,-24.521c3.732,-11.485 -2.182,-23.944 -11.019,-31.367c-2.346,1.742 -4.652,3.54 -6.916,5.365c0.933,-5.064 1.277,-10.319 0.096,-15.368c-1.331,-8.096 -6.353,-14.779 -9.865,-21.996c-4.748,-9.592 -8.961,-19.43 -12.967,-29.337c-1.455,-3.362 -1.414,-7.067 -1.496,-10.648" style="fill:#0f1715;fill-rule:nonzero;"/><path d="M102,546.753c2.676,-0.302 5.352,-0.59 8.055,-0.782c-2.017,2.237 -4.227,4.295 -6.573,6.175c-0.521,-1.798 -1.002,-3.595 -1.482,-5.393" style="fill:#97874f;fill-rule:nonzero;"/><path d="M875.444,548.88c2.813,0.151 5.64,0.412 8.466,0.713c-0.411,1.812 -0.85,3.623 -1.262,5.448c-2.662,-1.743 -5.077,-3.815 -7.204,-6.161" style="fill:#97874f;fill-rule:nonzero;"/><path d="M66.544,565.058c-2.676,-3.472 1.646,-6.504 4.967,-6.381c1.18,3.485 -0.522,8.302 -4.967,6.381" style="fill:#0f1715;fill-rule:nonzero;"/><path d="M914.976,560.886c1.674,-0.48 4.048,0.014 4.679,1.88c1.852,2.333 -1.756,6.161 -3.979,3.774c-2.36,-0.933 -2.319,-4.076 -0.7,-5.654" style="fill:#0f1715;fill-rule:nonzero;"/><path d="M593.466,591.293c4.83,3.801 7.011,9.77 9.399,15.231c5.063,12.281 7.684,26.208 3.856,39.203c-1.839,8.837 -7.822,15.985 -10.182,24.644c-28.925,6.216 -58.92,-11.787 -71.736,-37.46c4.61,1.056 6.422,6.133 9.797,9.001c11.609,11.019 27.526,17.811 43.594,17.783c5.351,0.412 9.371,-3.842 12.788,-7.354c7.767,-8.096 10.154,-19.787 10.14,-30.654c0.138,-10.621 -3.43,-20.816 -7.656,-30.394" style="fill:#0f1715;fill-rule:nonzero;"/><path d="M555.855,600.034c11.704,10.401 22.476,22.833 26.935,38.173c-0.768,2.086 -1.248,4.336 -2.497,6.23c-1.509,2.195 -3.856,0.851 -5.681,-0.069c-2.47,-2.922 -2.936,-6.86 -3.773,-10.428c-2.003,-9.399 -6.875,-17.838 -12.006,-25.838c-1.633,-2.428 -2.47,-5.241 -2.978,-8.068" style="fill:#0f1715;fill-rule:nonzero;"/><path d="M646.596,609.557c4.267,-1.729 7.944,-4.583 11.924,-6.861c-3.239,6.6 -6.271,14.01 -12.254,18.565c-6.545,-0.466 -13.488,-3.362 -17.879,-8.37c6.065,-1.002 12.473,-0.796 18.209,-3.334" style="fill:#0f1715;fill-rule:nonzero;"/><path d="M489.882,646.385c-0.151,-8.37 0.96,-17.481 7.025,-23.793c-1.715,18.319 1.331,38.297 13.461,52.773c-0.439,0.81 -1.331,2.443 -1.784,3.252c-1.674,0.412 -3.334,0.837 -4.981,1.277c-8.933,-8.727 -12.994,-21.283 -13.721,-33.509" style="fill:#0f1715;fill-rule:nonzero;"/><path d="M625.067,640.993c9.234,4.13 18.661,7.876 28.582,10.085c4.953,-2.813 9.742,-5.914 14.448,-9.125c-2.867,5.956 -5.927,11.924 -10.112,17.084c-1.949,2.401 -5.434,4.542 -8.412,2.566c-9.536,-4.968 -18.03,-12.02 -24.506,-20.61" style="fill:#0f1715;fill-rule:nonzero;"/><path d="M429.479,672.47c0.563,-8.562 0.796,-17.934 5.516,-25.385c0.069,8.343 -1.591,16.878 0.933,25.056c1.18,5.461 5.009,9.921 6.175,15.382c-0.37,1.701 -1.921,4.665 -4.089,3.362c-6.82,-3.184 -7.917,-11.774 -8.535,-18.415" style="fill:#0f1715;fill-rule:nonzero;"/><path d="M517.174,697.937c14.531,-7.107 20.267,-24.438 21.323,-39.545c1.619,4.075 2.305,8.411 2.758,12.747c-0.947,17.001 -7.437,33.495 -18.318,46.585c-6.093,-2.593 -12.308,-4.816 -18.456,-7.218c-10.881,-5.447 -20.431,-13.296 -28.76,-22.105c-6.751,-7.039 -13.324,-15.876 -13.159,-26.085c8.631,12.72 18.263,25.742 32.438,32.685c6.614,3.719 14.888,6.724 22.174,2.936" style="fill:#0f1715;fill-rule:nonzero;"/><path d="M668.344,683.132c6.889,-3.87 12.569,-9.372 18.209,-14.847c-4.213,14.065 -13.187,26.743 -24.548,36.033c-3.321,3.252 -9.248,3.225 -12.542,-0.055c-12.939,-10.511 -25.988,-21.035 -37.144,-33.494c2.456,0.645 4.858,1.591 6.971,3.046c9.289,6.092 19.045,11.622 29.433,15.629c7.286,2.552 13.625,-3.033 19.621,-6.312" style="fill:#0f1715;fill-rule:nonzero;"/><path d="M449.06,705.992c5.475,-6.559 10.442,-13.845 11.526,-22.531c3.362,7.574 1.427,16.15 -1.701,23.464c-2.662,5.502 -5.311,11.101 -9.139,15.931c-11.499,-5.077 -23.231,-11.252 -30.352,-22.037c-2.305,-3.142 -2.703,-7.094 -3.17,-10.826c4.899,4.871 10.127,9.646 16.521,12.5c5.118,2.223 10.566,5.05 16.315,3.499" style="fill:#0f1715;fill-rule:nonzero;"/><path d="M572.28,696.922c9.138,7.561 19.21,15.121 31.395,16.452c3.951,-4.171 6.641,-9.358 10.757,-13.392c0.439,9.879 -4.24,19.745 -12.363,25.426c-4.212,1.756 -7.519,-2.374 -10.511,-4.638c-7.519,-6.888 -14.984,-14.462 -19.278,-23.848" style="fill:#0f1715;fill-rule:nonzero;"/><path d="M504.385,720.002c5.118,8.754 11.554,16.85 19.073,23.669c3.005,3.156 9.509,4.021 9.057,9.441c-1.661,2.154 -4.172,3.554 -6.779,4.254c-4.281,0.109 -6.477,-4.268 -8.699,-7.232c-5.818,-9.193 -11.842,-19.032 -12.652,-30.132" style="fill:#0f1715;fill-rule:nonzero;"/><path d="M559.505,719.961c4.35,1.674 7.437,5.241 10.442,8.644c12.679,7.478 25.001,16.576 39.642,19.759c7.368,-0.851 14.599,-4.034 19.594,-9.632c2.305,-2.196 3.911,-5.887 7.67,-5.462c-3.197,12.336 -10.332,23.368 -19.21,32.383c-2.703,2.951 -6.49,0 -9.413,-0.946c-13.625,-6.683 -27.8,-13.708 -37.583,-25.715c-4.515,-5.79 -9.77,-11.567 -11.142,-19.031" style="fill:#0f1715;fill-rule:nonzero;"/><path d="M676.042,724.859c7.821,-0.233 13.886,6.12 18.181,11.897c-1.742,3.43 -3.759,6.97 -7.094,9.097c-4.13,2.552 -9.056,3.225 -13.763,3.938c-0.041,-8.397 2.951,-16.493 2.676,-24.932" style="fill:#0f1715;fill-rule:nonzero;"/><path d="M181.078,738.142c8.946,-2.69 17.769,-5.805 26.263,-9.702c5.406,4.625 9.111,12.35 16.836,13.365c3.952,0.069 7.808,-0.947 11.718,-1.29c-2.538,6.601 -8.795,11.65 -15.985,11.897c-6.257,0.041 -11.513,-3.883 -16.576,-7.08c-0.329,4.391 -0.302,8.809 0.11,13.2c5.475,0.233 11.018,-0.096 16.438,0.837c3.06,2.634 -0.288,7.204 -2.168,9.66c-4.322,1.907 -9.344,1.194 -13.968,1.729c-1.386,14.353 -0.371,28.815 -1.427,43.195c-0.645,7.986 -7.053,16.123 -15.341,16.754c-7.039,-1.001 -12.404,-6.38 -16.85,-11.512c5.365,-0.933 11.553,-0.041 16.177,-3.403c2.484,-3.211 1.455,-7.725 1.853,-11.499c0.165,-16.507 -0.014,-33.027 0.055,-49.535c0.096,-2.497 -0.563,-4.884 -1.647,-7.08c-0.672,16.054 -0.082,32.15 -0.439,48.218c-0.151,6.531 0.59,13.241 -1.55,19.567c-3.76,1.344 -7.726,1.687 -11.568,0.48c-2.648,-4.267 -4.885,-8.96 -8.658,-12.349c-2.717,-0.741 -5.585,-0.33 -8.343,-0.494c2.456,-6.326 10.717,-9.99 16.754,-6.367c3.952,2.621 6.052,7.08 8.645,10.908c-1.043,-15.601 0.453,-31.23 -0.618,-46.818c-5.282,0.371 -10.991,0.577 -15.327,4.021c-1.838,0.7 -3.608,3.485 -5.667,2.168c0.124,-4.487 3.06,-8.412 6.148,-11.43c3.814,-3.609 9.344,-3.664 14.078,-5.228c1.674,-3.76 0.755,-8.178 1.057,-12.212" style="fill:#97874f;fill-rule:nonzero;"/><path d="M438.782,731.583c5.901,1.221 11.225,4.061 16.549,6.792c0.151,2.47 0.919,5.091 0.013,7.506c-2.771,3.265 -8.287,6.092 -11.814,2.319c-2.813,-5.077 -3.65,-10.991 -4.748,-16.617" style="fill:#0f1715;fill-rule:nonzero;"/><path d="M479.796,736.632c0.741,-0.11 2.196,-0.329 2.937,-0.439c10.03,16.795 26.331,28.857 43.675,37.337c4.844,2.634 10.511,0.795 15.19,-1.29c8.521,-3.733 14.065,-11.554 19.883,-18.428c-0.316,10.538 -5.599,20.417 -12.775,27.909c-6.394,5.681 -15.19,7.149 -22.984,10.072c-10.167,-7.917 -19.237,-17.152 -27.841,-26.716c-7.409,-8.48 -14.188,-17.783 -18.085,-28.445" style="fill:#0f1715;fill-rule:nonzero;"/><path d="M775.222,745.208c3.265,-4.116 8.274,-6.861 13.09,-8.864c5.42,0.233 8.727,5.942 10.209,10.621c6.024,-2.937 11.005,-7.657 17.207,-10.264c3.019,1.345 5.296,3.856 7.931,5.804c3.458,3.485 7.313,-1.948 11.348,-1.441c-2.264,4.034 -6.395,7.341 -6.71,12.254c-0.577,8.274 -0.22,16.589 -0.741,24.891c-0.055,4.281 -0.92,8.877 1.056,12.898c2.594,0.727 5.311,0.809 7.986,1.194c-3.581,5.886 -10.332,8.617 -15.629,12.692c-4.212,-3.266 -9.028,-7.259 -8.905,-13.118c0.055,-12.829 0.892,-25.673 0.645,-38.489c0.274,-3.169 -2.538,-5.873 -5.461,-6.367c-3.54,1.784 -7.725,3.719 -9.784,7.177c-0.754,10.758 -0.892,21.584 -0.919,32.369c-0.535,3.609 4.418,5.859 3.581,9.111c-3.636,2.964 -7.327,6.669 -11.91,7.918c-4.446,-1.729 -8.603,-5.201 -11.389,-9.084c1.592,-3.211 5.448,-5.352 5.173,-9.331c0.357,-12.349 0.686,-24.726 0.275,-37.076c-2.237,-1.042 -5.887,-0.48 -7.053,-2.895" style="fill:#97874f;fill-rule:nonzero;"/><path d="M460.243,767.382c5.475,-1.537 10.003,-5.186 14.655,-8.315c0.37,9.427 -2.415,18.812 -7.369,26.798c-9.783,-3.773 -19.882,-9.989 -24.342,-19.855c5.708,0.096 11.334,1.688 17.056,1.372" style="fill:#0f1715;fill-rule:nonzero;"/><path d="M671.857,771.705c5.214,-2.882 9.66,-6.957 14.998,-9.619c-1.798,9.509 -7.3,17.646 -10.923,26.482c-9.124,-0.85 -19.841,-1.358 -26.757,-8.082c7.451,-3.183 15.643,-4.596 22.682,-8.781" style="fill:#0f1715;fill-rule:nonzero;"/><path d="M566.489,775.519c8.411,5.365 16.658,11.718 26.62,13.804c8.96,-0.659 17.495,-4.075 25.33,-8.329c-4.363,8.425 -10.195,15.903 -16.301,23.107c-11.115,-2.278 -22.01,-7.656 -29.227,-16.617c-2.882,-3.526 -5.791,-7.341 -6.422,-11.965" style="fill:#0f1715;fill-rule:nonzero;"/><path d="M478.191,807.6c5.557,-5.255 9.921,-11.663 15.725,-16.671c1.619,14.119 -5.009,28.197 -15.259,37.679c-0.398,0.178 -1.18,0.563 -1.578,0.741c-4.747,-7.602 -9.756,-15.121 -13.09,-23.505c4.775,0.027 9.536,0.659 14.202,1.756" style="fill:#0f1715;fill-rule:nonzero;"/><path d="M735.8,804.197c6.613,-3.279 13.063,-6.888 19.553,-10.428c7.341,6.12 13.543,13.447 20.239,20.239c-8.343,7.698 -17.289,14.696 -25.714,22.298c0.096,3.567 -0.124,7.204 0.645,10.73c3.238,3.623 8.48,4.309 12.871,5.887c2.785,-1.661 5.475,-3.513 8.466,-4.789c1.756,-0.206 2.634,0.59 2.662,2.387c-6.175,4.913 -13.173,8.686 -19.54,13.338c-8.233,-3.239 -16.85,-5.352 -25.467,-7.245c2.127,-3.376 5.75,-6.683 4.707,-11.115c-1.29,-3.403 -4.405,-5.598 -6.971,-7.999c0.878,-0.247 2.607,-0.728 3.472,-0.975c0.109,-2.085 1.166,-3.732 2.607,-5.132c-0.179,-6.243 -0.453,-12.472 -0.741,-18.702c-1.564,-1.208 -3.129,-2.36 -4.583,-3.636c2.14,-2.278 5.077,-3.444 7.794,-4.858" style="fill:#97874f;fill-rule:nonzero;"/><path d="M539.554,806.736c6.161,-0.851 11.54,-4.391 17.344,-6.449c-0.961,9.042 -6.12,16.795 -10.593,24.465c-1.565,3.033 -4.405,-0.576 -6.038,-1.729c-6.216,-6.12 -13.804,-11.69 -17.097,-20.047c5.585,0.686 10.758,3.266 16.384,3.76" style="fill:#0f1715;fill-rule:nonzero;"/><path d="M223.395,809.494c7.272,-1.084 14.517,-2.539 21.2,-5.722c8.85,3.581 18.359,5.736 27.951,5.022c-1.771,4.377 -4.501,8.549 -4.721,13.406c-0.439,9.55 -0.384,19.114 -0.727,28.678c0.014,3.005 -0.37,6.381 1.619,8.947c2.347,1.056 4.981,1.289 7.479,1.907c-4.213,3.842 -8.782,7.355 -13.859,9.962c-1.921,1.537 -4.007,-0.192 -5.365,-1.537c-2.676,-2.813 -4.199,-6.449 -5.969,-9.838c-7.794,1.358 -12.597,9.042 -20.116,10.675c-6.477,-3.033 -10.813,-10.305 -11.046,-17.385c0.604,-10.237 8.425,-17.564 15.025,-24.548c-3.471,-6.738 -8.548,-12.542 -11.471,-19.567" style="fill:#97874f;fill-rule:nonzero;"/><path d="M748.465,805.995c4.336,2.14 7.533,5.859 10.853,9.289c1.18,1.359 2.978,2.813 2.155,4.858c-3.143,3.773 -7.465,6.298 -11.581,8.891c-1.688,-7.56 -1.496,-15.354 -1.427,-23.038" style="fill:#0f1715;fill-rule:nonzero;"/><path d="M615.187,815.38c6.271,-1.303 11.389,-5.708 17.715,-6.737c-2.402,7.629 -7.986,13.735 -13.612,19.197c-2.141,2.126 -5.16,-0.206 -7.437,-0.865c-6.381,-3.074 -13.489,-5.79 -17.989,-11.499c7.094,0.385 14.339,2.251 21.323,-0.096" style="fill:#0f1715;fill-rule:nonzero;"/><path d="M229.021,812.952c8.192,1.248 16.219,3.814 23.628,7.547c-0.946,4.267 1.414,10.208 -2.099,13.364c-5.379,-1.523 -11.952,-2.826 -14.874,-8.15c-2.553,-4.076 -4.803,-8.343 -6.655,-12.761" style="fill:#0f1715;fill-rule:nonzero;"/><path d="M236.609,833.314c5.022,-0.864 10.428,2.8 14.805,5.407c1.002,4.857 0.645,9.934 -0.013,14.819c-1.867,3.334 -5.791,5.914 -9.592,6.202c-9.454,-4.844 -11.073,-18.4 -5.2,-26.428" style="fill:#0f1715;fill-rule:nonzero;"/><path d="M668.536,831.764c15.204,8.178 28.871,18.853 43.553,27.896c3.087,1.715 6.161,-1.715 9.138,-2.47c-2.854,10.483 -1.303,21.406 -1.701,32.122c-0.357,7.753 1.139,15.725 -1.112,23.299c-7.299,2.635 -13.9,6.834 -21.131,9.564c-5.694,-1.578 -10.758,-4.871 -16.466,-6.394c-3.746,-1.413 -7.999,-1.55 -11.457,-3.622c1.139,-3.444 3.238,-6.683 2.936,-10.442c0,-11.938 -0.123,-23.903 0.508,-35.828c4.089,-2.085 10.044,-2.346 12.459,-6.572c-4.926,-4.638 -11.416,-7.122 -16.48,-11.526c-1.975,-5.091 -0.713,-10.758 -0.247,-16.027" style="fill:#97874f;fill-rule:nonzero;"/><path d="M295.255,845.033c5.296,-2.429 10.318,-6.353 16.507,-5.667c-3.197,3.732 -7.314,7.492 -7.012,12.871c-0.055,19.69 -0.11,39.408 -0.082,59.098c-0.535,3.719 3.087,5.612 5.475,7.684c1.907,0.179 6.27,-2.113 5.543,1.4c-3.787,3.979 -8.439,7.094 -13.323,9.578c-5.023,-4.281 -10.978,-7.218 -17.194,-9.304c2.278,-3.759 5.297,-7.464 4.817,-12.157c-0.014,-18.332 -0.288,-36.664 -0.234,-54.982c0.467,-4.967 -3.787,-8.11 -6.476,-11.609c4.418,-1.07 7.903,2.402 11.979,3.088" style="fill:#97874f;fill-rule:nonzero;"/><path d="M343.431,856.778c6.051,-2.168 11.444,-7.066 18.346,-5.763c-2.141,2.47 -4.665,4.624 -6.559,7.314c-1.88,3.115 -1.29,6.929 -1.441,10.415c0.151,6.092 -0.37,12.239 0.371,18.318c1.344,0.878 2.415,-0.878 3.499,-1.345c4.83,-3.801 9.605,-7.67 14.764,-11.032c5.475,3.376 10.113,7.931 13.818,13.173c-4.569,4.665 -10.538,7.848 -14.38,13.227c3.197,3.184 6.696,6.285 8.658,10.456c2.291,4.899 2.346,10.415 3.609,15.602c0.466,3.444 6.517,0.837 6.353,4.528c-4.254,4.226 -9.427,7.382 -14.298,10.867c-4.226,-2.826 -5.489,-7.849 -7.149,-12.322c-7.259,1.825 -11.595,9.482 -18.552,11.224c-5.749,-3.512 -11.608,-6.833 -17.824,-9.467c2.346,-3.362 5.132,-6.847 4.995,-11.197c0.356,-18.758 0.123,-37.529 0.164,-56.286c0.261,-4.83 -3.855,-8.082 -6.065,-11.91c4.309,0.068 7.863,2.593 11.691,4.198" style="fill:#97874f;fill-rule:nonzero;"/><path d="M690.971,864.984c5.064,-0.576 9.619,3.403 12.761,6.957c0.947,5.269 0.357,10.675 0.481,15.999c-0.22,7.163 0.494,14.38 -0.536,21.502c-5.186,-0.824 -10.991,-2.196 -15.011,-5.585c-0.768,-10.73 0,-21.543 -0.165,-32.301c0.234,-2.209 -0.576,-6.037 2.47,-6.572" style="fill:#0f1715;fill-rule:nonzero;"/><path d="M405.466,885.923c9.07,-5.351 18.868,-9.454 28.541,-13.612c6.518,6.861 13.036,13.735 19.293,20.843c-9.139,6.985 -18.154,14.12 -27.183,21.241c0.042,3.362 -0.151,6.779 0.412,10.127c3.019,3.005 6.888,4.967 10.278,7.533c4.418,-2.346 8.919,-4.583 13.749,-5.942c0.041,2.059 -0.824,3.829 -2.8,4.652c-6.065,3.321 -11.773,7.396 -18.153,10.072c-5.434,-1.002 -10.168,-4.309 -15.547,-5.558c-2.538,-1.07 -5.886,-0.974 -7.684,-3.252c1.66,-3.114 4.24,-5.996 4.13,-9.728c0.604,-10.085 0.384,-20.212 -0.013,-30.284c0.205,-3.087 -3.307,-4.185 -5.023,-6.092" style="fill:#97874f;fill-rule:nonzero;"/><path d="M468.311,882.808c4.734,-3.403 9.304,-7.533 15.094,-8.987c4.789,1.948 7.574,6.613 9.66,11.087c4.748,-2.772 8.933,-6.436 13.763,-9.057c5.516,-3.334 8.795,5.599 13.694,5.887c2.415,-0.892 4.583,-2.292 6.957,-3.293c1.317,3.993 -4.858,6.737 -5.077,10.991c-0.81,8.589 -0.124,17.234 -0.508,25.851c0.014,4.048 -0.7,8.219 0.329,12.212c1.043,3.664 8.398,-0.507 7.684,4.034c-4.747,3.87 -9.948,7.163 -14.915,10.731c-4.048,-3.321 -8.768,-7.3 -8.837,-12.995c0.124,-12.171 0.357,-24.342 0.453,-36.513c-0.055,-2.36 0.055,-5.132 -2.25,-6.504c-4.158,-3.842 -9.207,1.674 -12.432,4.419c-1.139,10.016 -0.7,20.157 -1.235,30.215c-0.727,4.226 2.154,7.478 4.062,10.908c-1.304,2.799 -4.446,4.117 -6.738,6.01c-1.934,1.043 -3.663,3.17 -6.051,2.868c-3.883,-2.099 -7.492,-4.761 -10.607,-7.849c-1.523,-3.773 4.364,-5.529 4.323,-9.234c0.562,-12.254 0.796,-24.589 0.384,-36.843c-1.715,-2.36 -5.283,-2.579 -7.753,-3.938" style="fill:#97874f;fill-rule:nonzero;"/><path d="M549.323,885.429c7.232,-2.635 13.818,-6.559 20.377,-10.538c5.777,3.032 11.855,5.434 18.099,7.327c2.044,0.769 5.324,1.386 4.967,4.309c0.123,14.682 0.878,29.433 0.288,44.115c-6.669,4.089 -14.243,6.613 -20.514,11.43c-8.342,-4.83 -17.056,-9.235 -26.784,-10.237c1.413,-3.54 3.458,-6.998 3.348,-10.922c0.206,-11.828 -0.672,-23.683 0.219,-35.484" style="fill:#97874f;fill-rule:nonzero;"/><path d="M613.252,883.453c3.623,-2.854 7.341,-5.859 11.691,-7.492c4.844,-0.206 6.984,5.502 10.813,7.616c5.296,-0.769 8.287,-6.628 13.543,-7.781c3.91,2.8 7.574,6.408 9.66,10.799c-1.921,3.554 -5.681,6.532 -9.564,7.41c-3.417,-1.372 -5.146,-5.146 -8.302,-6.998c-2.442,-0.124 -4.089,2.168 -5.982,3.362c0.192,11.553 -0.302,23.121 -0.069,34.688c-0.466,2.593 1.839,3.965 3.76,5.104c3.417,2.607 7.259,-0.864 10.867,-1.289l0.481,1.646c-4.913,4.117 -9.976,8.082 -15.176,11.814c-7.149,-2.223 -13.53,-6.408 -20.569,-8.974c2.25,-3.389 5.049,-6.833 4.885,-11.155c0.37,-10.086 0.315,-20.198 0.274,-30.297c0.206,-2.292 -1.276,-4.035 -2.442,-5.791c-1.18,0.137 -3.54,0.425 -4.72,0.563c-2.909,-0.247 0.301,-2.374 0.85,-3.225" style="fill:#97874f;fill-rule:nonzero;"/><path d="M426.392,883.59c5.228,3.884 9.66,8.796 13.104,14.339c-4.213,3.005 -8.164,6.628 -13.214,8.192c-0.219,-7.506 -0.302,-15.025 0.11,-22.531" style="fill:#0f1715;fill-rule:nonzero;"/><path d="M354.189,894.65c2.648,-3.664 6.422,-6.298 9.811,-9.221c3.636,1.921 6.655,4.734 9.18,7.959c-5.914,4.486 -11.307,9.742 -17.66,13.611c-0.384,-0.055 -1.153,-0.178 -1.551,-0.247c-0.288,-4.02 -0.617,-8.15 0.22,-12.102" style="fill:#0f1715;fill-rule:nonzero;"/><path d="M563.909,886.444c4.872,0.933 10.278,1.949 13.832,5.695c0.631,12.336 0.494,24.74 0.206,37.089c-4.872,-0.727 -9.962,-2.099 -13.598,-5.584c-0.714,-12.35 -1.208,-24.836 -0.44,-37.2" style="fill:#0f1715;fill-rule:nonzero;"/><path d="M353.764,914.67c2.099,-1.578 4.212,-3.129 6.311,-4.679c4.433,2.607 7.808,6.956 8.398,12.171c-0.151,4.624 -5.502,5.831 -8.603,8.15c-2.141,-1.399 -4.268,-2.799 -6.34,-4.253c0.096,-3.815 0.165,-7.602 0.234,-11.389" style="fill:#0f1715;fill-rule:nonzero;"/><path d="M604.608,922.546c0.494,0.823 0.494,0.823 0,0" style="fill:#383da2;fill-rule:nonzero;"/></g></svg>